<svg width="938" height="1179" viewBox="0 0 938 1179" fill="none" xmlns="http://www.w3.org/2000/svg">
	<path d="M536.463 302.025V1083.33C536.463 1104.5 521.104 1122.55 500.205 1125.93L186.504 1176.69C160.264 1180.94 136.461 1160.67 136.461 1134.09V716.083L-213.496 772.689C-239.735 776.933 -263.536 756.673 -263.536 730.092L-263.539 417.51C-263.539 396.339 -248.18 378.295 -227.281 374.913L486.42 259.428M536.463 302.025C536.463 275.443 512.661 255.182 486.42 259.428M536.463 302.025L536.465 458.867L186.507 515.486M486.42 259.428L136.463 316.584L136.463 472.889M136.463 472.889L136.463 160.262C136.463 139.09 151.824 121.046 172.724 117.666L886.418 2.22587C912.657 -2.01839 936.458 18.2417 936.458 44.8224L936.461 357.404C936.461 378.575 921.102 396.62 900.203 400.001L186.507 515.486M136.463 472.889C136.463 499.471 160.266 519.732 186.507 515.486" stroke="#1E2532" stroke-opacity="0.05" stroke-width="2"/>
</svg>