<svg width="114" height="95" viewBox="0 0 114 95" fill="none" xmlns="http://www.w3.org/2000/svg">
	<path opacity="0.5" d="M111.679 20.7893C107.58 9.32414 96.7832 1.41014 84.8869 0.902828C73.8009 0.422581 63.9948 4.81336 57.632 13.0086C62.2351 19.3552 64.4314 27.5325 63.0565 35.8445C61.7225 43.9802 58.0817 50.3238 52.1836 54.9771C54.3565 61.5081 57.9253 67.6759 62.7938 73.4479C72.4908 84.8116 85.0869 91.0007 99.4824 93.7402C101.082 94.1461 102.781 94.2475 104.381 94.5519C105.481 94.7548 106.08 94.349 106.28 93.1314C106.68 90.0876 107.18 87.1452 107.68 84.1014C107.88 82.9853 107.48 82.478 106.48 82.0721C103.281 80.7531 100.082 79.5356 97.0831 77.9122C90.8004 74.2685 87.1042 68.5044 85.2007 61.5265C85.1915 61.4927 85.1838 61.4713 85.1911 61.4371C85.2343 61.234 85.4476 61.0582 85.6544 61.0411C92.5018 60.4761 98.5739 58.0435 103.681 53.3585C112.678 45.1401 115.777 32.2545 111.679 20.7893Z" fill="white"/>
	<path d="M63.0568 35.8446C64.4318 27.5326 62.2354 19.3554 57.6323 13.0088C54.5852 16.9334 52.3278 21.7305 51.0977 27.283C48.8792 37.0978 49.315 46.3542 52.1839 54.9772C58.082 50.324 61.7228 43.9803 63.0568 35.8446Z" fill="white"/>
	<path opacity="0.5" d="M3.40749 22.1582C-0.444029 32.0934 -0.246515 42.13 2.41992 52.1665C6.76522 68.4886 16.9372 79.9445 31.6519 87.548C38.9599 91.4004 46.8605 93.5294 54.9585 94.5431C55.8474 94.7459 56.5387 94.4418 56.6374 93.3266C57.0324 90.1838 57.4275 87.1424 57.9213 84.1011C58.02 82.9859 57.5262 82.479 56.5387 82.0735C53.3784 80.7555 50.2182 79.6404 47.3543 78.0183C41.1539 74.4822 37.5036 68.8316 35.6215 61.8693C35.6087 61.8219 35.6022 61.7767 35.6022 61.7275C35.6022 61.4282 35.837 61.178 36.1357 61.159C39.9978 60.9131 43.7578 60.0908 47.1568 58.2493C48.9828 57.2704 50.6587 56.1803 52.1838 54.9771C49.3148 46.354 48.879 37.0977 51.0976 27.2829C52.3277 21.7304 54.5851 16.9333 57.6321 13.0086C53.3085 7.0474 46.8616 2.70124 39.2562 1.37547C23.6526 -1.36177 9.23414 7.1541 3.40749 22.1582Z" fill="white"/>
</svg>