<svg width="71" height="78" viewBox="0 0 71 78" fill="none" xmlns="http://www.w3.org/2000/svg">
	<path d="M30.9471 31.9766C14.137 31.9766 0.460449 45.6532 0.460449 62.4632C0.460449 63.1949 1.05432 63.7888 1.786 63.7888H60.1084C60.84 63.7888 61.4339 63.1949 61.4339 62.4632C61.4339 45.6531 47.7573 31.9766 30.9471 31.9766Z" fill="#8F81FC"/>
	<path d="M30.9468 29.1611C38.9994 29.1611 45.5273 22.6332 45.5273 14.5806C45.5273 6.52794 38.9994 0 30.9468 0C22.8941 0 16.3662 6.52794 16.3662 14.5806C16.3662 22.6332 22.8941 29.1611 30.9468 29.1611Z" fill="#8F81FC"/>
	<path d="M70.3574 40.1896C70.3574 41.3182 70.3574 42.4468 70.412 43.6291C70.6305 54.9688 70.9035 70.3928 51.7903 76.8957L51.2442 77.0032L50.6981 76.8957C31.558 70.4023 31.857 54.9599 32.0754 43.6782L32.0763 43.6291C32.1309 42.4468 32.1309 41.3182 32.1309 40.1896C32.1309 39.276 32.8409 38.5773 33.7692 38.5773C40.5954 38.5773 45.7833 36.6426 50.0974 32.5044C50.7527 31.9132 51.7357 31.9132 52.391 32.5044C56.7051 36.6426 61.893 38.5773 68.7192 38.5773C69.6475 38.5773 70.3574 39.276 70.3574 40.1896ZM53.4699 52.1699L51.5923 47.7261C51.462 47.4169 51.0248 47.4169 50.8945 47.7261L49.017 52.1691L44.2103 52.582C43.8762 52.6108 43.7413 53.0268 43.9944 53.2458L47.6411 56.4053L46.5485 61.1044C46.4727 61.4302 46.8258 61.687 47.113 61.5143L51.2438 59.023L55.3747 61.5143C55.6611 61.6878 56.0149 61.4309 55.9391 61.1044L54.8466 56.4053L58.4925 53.2465C58.7456 53.0275 58.6099 52.6116 58.2766 52.5828L53.4699 52.1699Z" fill="#FFCA48"/>
	<path d="M61.4337 62.463C61.4337 63.1947 60.8398 63.7886 60.1081 63.7886H34.8433C31.8122 57.2712 31.9559 49.8515 32.0754 43.6778L32.0754 43.6778L32.0763 43.6286C32.1309 42.4463 32.1309 41.3177 32.1309 40.1891C32.1309 39.2755 32.8409 38.5768 33.7692 38.5768C38.4274 38.5768 42.3227 37.6759 45.6981 35.7886C55.0741 40.9943 61.4337 51.0001 61.4337 62.463Z" fill="#8F81FC"/>
	<path d="M61.4337 62.463C61.4337 63.1947 60.8398 63.7886 60.1081 63.7886H34.8433C31.8122 57.2712 31.9559 49.8515 32.0754 43.6778L32.0754 43.6778L32.0763 43.6286C32.1309 42.4463 32.1309 41.3177 32.1309 40.1891C32.1309 39.2755 32.8409 38.5768 33.7692 38.5768C38.4274 38.5768 42.3227 37.6759 45.6981 35.7886C55.0741 40.9943 61.4337 51.0001 61.4337 62.463Z" fill="url(#paint0_linear)"/>
	<path d="M51.5923 47.7261L53.4699 52.1699L58.2766 52.5828C58.6099 52.6116 58.7456 53.0275 58.4925 53.2465L54.8466 56.4053L55.9391 61.1044C56.0149 61.4309 55.6611 61.6878 55.3747 61.5143L51.2438 59.023L47.113 61.5143C46.8258 61.687 46.4727 61.4302 46.5485 61.1044L47.6411 56.4053L43.9944 53.2458C43.7413 53.0268 43.8762 52.6108 44.2103 52.582L49.017 52.1691L50.8945 47.7261C51.0248 47.4169 51.462 47.4169 51.5923 47.7261Z" fill="#F3F5FA"/>
	<defs>
		<linearGradient id="paint0_linear" x1="33.3866" y1="40.5461" x2="61.4337" y2="63.7886" gradientUnits="userSpaceOnUse">
			<stop stop-color="#1A49B9"/>
			<stop offset="1" stop-color="#1A49B9" stop-opacity="0"/>
		</linearGradient>
	</defs>
</svg>