<svg width="89" height="86" viewBox="0 0 89 86" fill="none" xmlns="http://www.w3.org/2000/svg">
	<path d="M68.1347 64.7414L54.9221 61.4375L54.1599 58.3853C63.2752 56.8506 67.9656 54.1191 68.1725 53.9983C68.6622 53.712 68.9658 53.1913 69.0072 52.6256C69.0452 52.0599 68.7933 51.5048 68.3484 51.1494C68.2865 51.1013 62.1234 46.0108 62.1234 28.3733C62.1234 13.4983 58.6435 5.95564 51.7768 5.95564H50.7594C48.283 3.56219 46.4242 2.50684 41.4302 2.50684C34.9499 2.50684 20.7371 9.02178 20.7371 28.3733C20.7371 46.0108 14.5739 51.1013 14.5291 51.1357C14.0705 51.4805 13.8118 52.0289 13.8393 52.6015C13.8704 53.1775 14.1808 53.6949 14.674 53.9914C14.8809 54.1155 19.5265 56.8608 28.697 58.392L27.9347 61.4373L14.7223 64.7414C6.07939 66.9039 0.0439453 74.6362 0.0439453 83.5549C0.0439453 84.5068 0.816543 85.2794 1.76843 85.2794H81.0922C82.0441 85.2794 82.8166 84.5 82.8166 83.5481C82.8165 74.6362 76.781 66.9039 68.1347 64.7414Z" fill="#8F81FC"/>
	<path d="M3.53906 21.4295C3.53906 23.0634 4.86126 24.3856 6.49522 24.3856C14.645 24.3856 21.276 31.0167 21.276 39.1664C21.276 40.8004 22.5982 42.1226 24.2322 42.1226C25.8662 42.1226 27.1884 40.8004 27.1884 39.1664C27.1884 31.0167 33.8194 24.3856 41.9692 24.3856C43.6031 24.3856 44.9253 23.0634 44.9253 21.4295C44.9253 19.7955 43.6031 18.4733 41.9692 18.4733C33.8194 18.4733 27.1884 11.8422 27.1884 3.69249C27.1884 2.05852 25.8662 0.736328 24.2322 0.736328C22.5982 0.736328 21.276 2.05852 21.276 3.69249C21.276 11.8422 14.645 18.4733 6.49522 18.4733C4.86126 18.4733 3.53906 19.7955 3.53906 21.4295Z" fill="#FFCA48"/>
	<path d="M75.6278 82.323C77.0003 82.323 78.111 81.2123 78.111 79.8398C78.111 75.732 81.4527 72.3903 85.5605 72.3903C86.933 72.3903 88.0437 71.2796 88.0437 69.9071C88.0437 68.5346 86.933 67.4239 85.5605 67.4239C81.4527 67.4239 78.111 64.0822 78.111 59.9744C78.111 58.6019 77.0003 57.4912 75.6278 57.4912C74.2553 57.4912 73.1446 58.6019 73.1446 59.9744C73.1446 64.0822 69.8029 67.4239 65.6951 67.4239C64.3226 67.4239 63.2119 68.5346 63.2119 69.9071C63.2119 71.2796 64.3226 72.3903 65.6951 72.3903C69.8029 72.3903 73.1446 75.732 73.1446 79.8398C73.1446 81.2123 74.2553 82.323 75.6278 82.323Z" fill="#FFCA48"/>
	<path d="M24.2321 42.1233C22.5981 42.1233 21.2759 40.8011 21.2759 39.1671C21.2759 37.4884 20.9946 35.8741 20.4766 34.3689C20.6426 32.5538 20.7373 30.5601 20.7373 28.3736C20.7373 19.1291 23.9809 12.814 28.0755 8.73926C30.1424 14.4121 35.5906 18.474 41.9691 18.474C43.603 18.474 44.9252 19.7962 44.9252 21.4301C44.9252 23.0641 43.603 24.3863 41.9691 24.3863C33.8193 24.3863 27.1883 31.0173 27.1883 39.1671C27.1883 40.8011 25.8661 42.1233 24.2321 42.1233Z" fill="#8F81FC"/>
	<path d="M78.1115 79.8405C78.1115 81.2131 77.0008 82.3237 75.6283 82.3237C74.2557 82.3237 73.1451 81.2131 73.1451 79.8405C73.1451 75.7327 69.8034 72.391 65.6956 72.391C64.323 72.391 63.2124 71.2804 63.2124 69.9078C63.2124 68.5353 64.323 67.4247 65.6956 67.4247C67.5884 67.4247 69.3186 66.7151 70.6341 65.5481C74.929 67.2606 78.3926 70.4187 80.5133 74.3664C79.0372 75.7285 78.1115 77.6784 78.1115 79.8405Z" fill="#8F81FC"/>
	<path d="M24.2321 42.1233C22.5981 42.1233 21.2759 40.8011 21.2759 39.1671C21.2759 37.4884 20.9946 35.8741 20.4766 34.3689C20.6426 32.5538 20.7373 30.5601 20.7373 28.3736C20.7373 19.1291 23.9809 12.814 28.0755 8.73926C30.1424 14.4121 35.5906 18.474 41.9691 18.474C43.603 18.474 44.9252 19.7962 44.9252 21.4301C44.9252 23.0641 43.603 24.3863 41.9691 24.3863C33.8193 24.3863 27.1883 31.0173 27.1883 39.1671C27.1883 40.8011 25.8661 42.1233 24.2321 42.1233Z" fill="url(#paint0_linear)"/>
	<path d="M78.1115 79.8405C78.1115 81.2131 77.0008 82.3237 75.6283 82.3237C74.2557 82.3237 73.1451 81.2131 73.1451 79.8405C73.1451 75.7327 69.8034 72.391 65.6956 72.391C64.323 72.391 63.2124 71.2804 63.2124 69.9078C63.2124 68.5353 64.323 67.4247 65.6956 67.4247C67.5884 67.4247 69.3186 66.7151 70.6341 65.5481C74.929 67.2606 78.3926 70.4187 80.5133 74.3664C79.0372 75.7285 78.1115 77.6784 78.1115 79.8405Z" fill="url(#paint1_linear)"/>
	<defs>
		<linearGradient id="paint0_linear" x1="65.7651" y1="45.5315" x2="34.0605" y2="76.1512" gradientUnits="userSpaceOnUse">
			<stop stop-color="#1A49B9"/>
			<stop offset="1" stop-color="#1A49B9" stop-opacity="0"/>
		</linearGradient>
		<linearGradient id="paint1_linear" x1="65.7651" y1="45.5315" x2="34.0605" y2="76.1512" gradientUnits="userSpaceOnUse">
			<stop stop-color="#1A49B9"/>
			<stop offset="1" stop-color="#1A49B9" stop-opacity="0"/>
		</linearGradient>
	</defs>
</svg>