<svg width="89" height="79" viewBox="0 0 89 79" fill="none" xmlns="http://www.w3.org/2000/svg">
	<path d="M75.0182 52.4675C67.4909 52.4675 61.3653 46.3418 61.3653 38.8145C61.3653 31.2872 67.4909 25.1616 75.0182 25.1616H82.6032V19.0936C82.6032 15.7471 79.8817 13.0256 76.5352 13.0256H73.5013V6.95763C73.5013 3.61114 70.7798 0.889648 67.4333 0.889648H24.9574C20.458 0.889648 16.7384 4.17849 16.0102 8.47159C15.9435 8.72037 15.8555 8.96309 15.8555 9.23312V55.5014C15.8555 60.5197 19.9392 64.6034 24.9574 64.6034H76.5352C79.8817 64.6034 82.6032 61.8819 82.6032 58.5354V52.4675H75.0182ZM21.9234 9.99161C21.9234 8.31989 23.2827 6.95763 24.9574 6.95763H67.4333V13.0256H24.9574C23.2827 13.0256 21.9234 11.6633 21.9234 9.99161Z" fill="#8F81FC"/>
	<path d="M86.3957 29.7123H75.0182C70 29.7123 65.9163 33.7961 65.9163 38.8143C65.9163 43.8325 70 47.9162 75.0182 47.9162H86.3957C87.6518 47.9162 88.6712 46.8968 88.6712 45.6407V31.9878C88.6712 30.7317 87.6518 29.7123 86.3957 29.7123ZM75.0182 41.8483C73.3435 41.8483 71.9843 40.489 71.9843 38.8143C71.9843 37.1395 73.3435 35.7803 75.0182 35.7803C76.693 35.7803 78.0522 37.1395 78.0522 38.8143C78.0522 40.489 76.693 41.8483 75.0182 41.8483Z" fill="#8F81FC"/>
	<path d="M0.670898 53.933C0.670898 40.5501 11.5599 29.6611 24.9428 29.6611C38.3257 29.6611 49.2147 40.5501 49.2147 53.933C49.2147 67.316 38.3257 78.2049 24.9428 78.2049C11.5599 78.2049 0.670898 67.316 0.670898 53.933Z" fill="#FFCA48"/>
	<path d="M24.9574 64.6034C19.9392 64.6034 15.8555 60.5197 15.8555 55.5015V31.4263C18.6637 30.2882 21.7316 29.6611 24.9431 29.6611C38.326 29.6611 49.215 40.5501 49.215 53.933C49.215 57.7591 48.325 61.3812 46.7412 64.6034H24.9574Z" fill="#8F81FC"/>
	<path d="M24.9574 64.6034C19.9392 64.6034 15.8555 60.5197 15.8555 55.5015V31.4263C18.6637 30.2882 21.7316 29.6611 24.9431 29.6611C38.326 29.6611 49.215 40.5501 49.215 53.933C49.215 57.7591 48.325 61.3812 46.7412 64.6034H24.9574Z" fill="url(#paint0_linear)"/>
	<path fill-rule="evenodd" d="M29.4938 64.6215V66.9334C29.4938 68.1895 28.4743 69.2089 27.2183 69.2089C25.9622 69.2089 24.9428 68.1925 24.9428 66.9365V64.661H23.4258V66.9365C23.4258 68.1925 22.4064 69.2119 21.1503 69.2119C19.8942 69.2119 18.8748 68.1925 18.8748 66.9365V64.661H18.1163C16.8602 64.661 15.8408 63.6415 15.8408 62.3855V45.6985C15.8408 44.4425 16.8602 43.4231 18.1163 43.4231H18.8748V41.1476C18.8748 39.8915 19.8942 38.8721 21.1503 38.8721C22.4064 38.8721 23.4258 39.8915 23.4258 41.1476V43.4231H24.9428V41.1476C24.9428 39.8915 25.9622 38.8721 27.2183 38.8721C28.4743 38.8721 29.4938 39.8915 29.4938 41.1476V43.7356C32.1182 44.5456 34.0448 46.9667 34.0448 49.8551C34.0448 51.0778 33.6867 52.2064 33.1012 53.1804C34.5878 54.3606 35.5617 56.1597 35.5617 58.1986C35.5617 61.6482 32.8676 64.4304 29.4938 64.6215ZM29.4937 49.8857C29.4937 48.8178 28.6503 47.9743 27.6126 47.9743H20.3917V51.7668H27.6126C28.6503 51.7668 29.4937 50.9203 29.4937 49.8857ZM20.3917 60.11V56.3176H29.1296C30.1672 56.3176 31.0107 57.161 31.0107 58.229C31.0107 59.2666 30.1672 60.11 29.1296 60.11H20.3917Z" fill="white"/>
	<defs>
		<linearGradient id="paint0_linear" x1="35.4453" y1="38.489" x2="24.9128" y2="71.2115" gradientUnits="userSpaceOnUse">
			<stop stop-color="#1A49B9"/>
			<stop offset="1" stop-color="#1A49B9" stop-opacity="0"/>
		</linearGradient>
	</defs>
</svg>