<svg width="89" height="89" viewBox="0 0 89 89" fill="none" xmlns="http://www.w3.org/2000/svg">
	<path d="M69.5291 5.77539C80.0006 5.77539 88.4895 14.2643 88.4895 24.7358C88.4895 24.7358 88.4989 24.8587 88.4996 25.0964C88.5076 27.928 87.2757 47.0524 54.1248 68.775C53.9396 68.8963 53.7535 69.0177 53.5664 69.1392C53.1863 68.8924 52.8104 68.646 52.4385 68.4C17.2177 45.0956 18.6323 24.8811 18.6429 24.7366C18.6429 24.736 18.643 24.7358 18.643 24.7358C18.643 14.2643 27.1319 5.77539 37.6033 5.77539C44.3049 5.77539 50.1942 9.25225 53.5662 14.5005C56.9382 9.25225 62.8275 5.77539 69.5291 5.77539Z" fill="#8F81FC"/>
	<path d="M50.4242 51.2563C50.4242 43.7727 44.3575 37.7061 36.8739 37.7061C32.0846 37.7061 27.8757 40.1909 25.4657 43.9415C23.0559 40.1909 18.847 37.7061 14.0575 37.7061C6.5739 37.7061 0.507232 43.7727 0.507232 51.2563C0.507232 51.2563 -0.625595 66.0534 25.4657 82.9898C51.557 66.0534 50.4242 51.2563 50.4242 51.2563Z" fill="#FFCA48"/>
	<path d="M36.8735 37.7061C44.3571 37.7061 50.4238 43.7727 50.4238 51.2563C50.4238 51.2563 50.8092 56.2903 45.9532 63.8465C36.0573 56.457 29.7392 49.5084 25.708 43.5769C28.1518 40.0306 32.2412 37.7061 36.8735 37.7061Z" fill="#8F81FC"/>
	<path d="M36.8735 37.7061C44.3571 37.7061 50.4238 43.7727 50.4238 51.2563C50.4238 51.2563 50.8092 56.2903 45.9532 63.8465C36.0573 56.457 29.7392 49.5084 25.708 43.5769C28.1518 40.0306 32.2412 37.7061 36.8735 37.7061Z" fill="url(#paint0_linear)"/>
	<defs>
		<linearGradient id="paint0_linear" x1="30.8404" y1="56.8232" x2="54.8803" y2="30.8178" gradientUnits="userSpaceOnUse">
			<stop stop-color="#1A49B9"/>
			<stop offset="1" stop-color="#1A49B9" stop-opacity="0"/>
		</linearGradient>
	</defs>
</svg>