<svg width="89" height="78" viewBox="0 0 89 78" fill="none" xmlns="http://www.w3.org/2000/svg">
	<path d="M55.3498 58.6738C50.7566 58.6738 46.9692 62.3806 46.9692 67.0544C46.9692 71.6476 50.676 75.435 55.3498 75.435C59.943 75.435 63.7304 71.7282 63.7304 67.0544C63.6498 62.4612 59.943 58.6738 55.3498 58.6738Z" fill="#8F81FC"/>
	<path d="M70.0962 18.705C69.935 18.705 69.6933 18.6244 69.4515 18.6244H18.6847L17.8788 13.2253C17.3953 9.67973 14.3332 7.02051 10.707 7.02051H4.17984C2.40703 7.02051 0.956543 8.47099 0.956543 10.2438C0.956543 12.0166 2.40703 13.4671 4.17984 13.4671H10.707C11.1099 13.4671 11.4322 13.7894 11.5128 14.1923L16.5089 48.1981C17.1536 52.469 20.8604 55.6922 25.2118 55.6922H58.7341C62.9244 55.6922 66.5506 52.7107 67.437 48.601L72.6748 22.4117C72.9972 20.7195 71.869 19.0273 70.0962 18.705Z" fill="#8F81FC"/>
	<path d="M34.801 66.6515C34.6398 62.2195 30.9331 58.6738 26.501 58.6738C21.8272 58.9156 18.2816 62.7835 18.4428 67.3767C18.6039 71.8088 22.2302 75.3544 26.6622 75.3544H26.8233C31.4165 75.1126 35.0427 71.2447 34.801 66.6515Z" fill="#8F81FC"/>
	<path d="M51.1074 19.8269C51.1074 9.39135 59.5964 0.902344 70.032 0.902344C80.4676 0.902344 88.9566 9.39135 88.9566 19.8269C88.9566 30.2625 80.4676 38.7515 70.032 38.7515C59.5964 38.7515 51.1074 30.2625 51.1074 19.8269Z" fill="#FFCA48"/>
	<path d="M69.4516 18.624C69.6933 18.624 69.9351 18.7046 70.0962 18.7046C71.8691 19.0269 72.9972 20.7192 72.6749 22.4114L69.409 38.741C59.2606 38.4111 51.1074 30.0536 51.1074 19.8265C51.1074 19.4226 51.1201 19.0217 51.1452 18.624H69.4516Z" fill="#8F81FC"/>
	<path d="M69.4516 18.624C69.6933 18.624 69.9351 18.7046 70.0962 18.7046C71.8691 19.0269 72.9972 20.7192 72.6749 22.4114L69.409 38.741C59.2606 38.4111 51.1074 30.0536 51.1074 19.8265C51.1074 19.4226 51.1201 19.0217 51.1452 18.624H69.4516Z" fill="url(#paint0_linear)"/>
	<path d="M72.1901 29.9603C72.1719 29.967 72.1528 29.9639 72.1346 29.9703V32.4429C72.1346 33.6052 71.1941 34.5457 70.0319 34.5457C68.8696 34.5457 67.9291 33.6052 67.9291 32.4429V29.956C66.5443 29.488 65.2173 28.6001 64.083 27.2478C63.3355 26.3586 63.4505 25.0321 64.3417 24.2867C65.2309 23.5414 66.5615 23.6584 67.3028 24.5455C68.4157 25.868 69.6807 26.4018 70.7506 26.0096C71.5781 25.7076 72.1346 24.9129 72.1346 24.032C72.1346 22.8719 71.192 21.9293 70.0319 21.9293C66.5534 21.9293 63.7237 19.0996 63.7237 15.6211C63.7237 13.1418 65.1252 10.7259 67.9291 9.72152V7.21015C67.9291 6.0479 68.8696 5.10742 70.0319 5.10742C71.1941 5.10742 72.1346 6.0479 72.1346 7.21015V9.72516C73.2239 10.0933 74.2861 10.6783 75.2332 11.5963C76.0668 12.4033 76.0874 13.7339 75.2783 14.5697C74.4734 15.4034 73.1386 15.4219 72.3049 14.6149C71.2823 13.625 70.1528 13.2842 69.2145 13.6826C68.4343 14.0132 67.9291 14.773 67.9291 15.6211C67.9291 16.7812 68.8717 17.7238 70.0319 17.7238C73.5103 17.7238 76.3401 20.5535 76.3401 24.032C76.3401 26.6749 74.6726 29.0568 72.1901 29.9603Z" fill="white"/>
	<defs>
		<linearGradient id="paint0_linear" x1="53.367" y1="31.1713" x2="74.2294" y2="17.0727" gradientUnits="userSpaceOnUse">
			<stop stop-color="#1A49B9"/>
			<stop offset="1" stop-color="#1A49B9" stop-opacity="0"/>
		</linearGradient>
	</defs>
</svg>