<svg width="64" height="51" viewBox="0 0 64 51" fill="none" xmlns="http://www.w3.org/2000/svg">
	<path d="M24.8385 20.4694C26.2636 21.4194 28.764 21.4195 30.1893 20.4692C30.1895 20.4691 30.1899 20.4689 30.1901 20.4688L54.4785 4.27642C53.6818 1.97234 51.492 0.3125 48.9206 0.3125H6.10682C3.5353 0.3125 1.3456 1.97234 0.548828 4.27642L24.8378 20.4689C24.8381 20.4691 24.8383 20.4691 24.8385 20.4694Z" fill="#8F81FC"/>
	<path d="M31.9637 23.1311C31.9634 23.1313 31.9632 23.1315 31.963 23.1316C30.7156 23.9632 29.1144 24.379 27.5137 24.379C25.9127 24.379 24.3122 23.9633 23.0647 23.1315C23.0645 23.1314 23.0644 23.1313 23.0642 23.1312L0.226562 7.90625V35.3079C0.226562 38.5501 2.86438 41.1878 6.10678 41.1878H48.9209C52.1632 41.1878 54.8009 38.5501 54.8009 35.3079V7.90625L31.9637 23.1311Z" fill="#8F81FC"/>
	<circle cx="50.3565" cy="36.669" r="13.6436" fill="#FFCA48"/>
	<path d="M54.8013 35.3066C54.8013 38.5488 52.1636 41.1865 48.9213 41.1865H37.4786C36.9826 39.7726 36.7129 38.2523 36.7129 36.669C36.7129 29.1338 42.8213 23.0254 50.3565 23.0254C51.9127 23.0254 53.408 23.2859 54.8013 23.7658V35.3066Z" fill="#1A49B9"/>
	<path d="M57.451 29.5742L43.2617 37.5557L47.7964 39.2352L54.7906 32.6781L49.4705 39.8553L49.4749 39.8569L49.4696 39.8553V43.7636L52.0126 40.7968L55.234 41.9899L57.451 29.5742Z" fill="white"/>
</svg>