<svg width="89" height="89" viewBox="0 0 89 89" fill="none" xmlns="http://www.w3.org/2000/svg">
	<path d="M83.3424 34.064C83.3424 26.0412 79.2492 18.957 73.0418 14.7885L73.0426 14.7873C72.0087 14.093 70.9161 13.4796 69.7741 12.9562C67.528 11.9341 65.1654 11.292 62.8078 11.0128C61.9321 10.9121 61.0418 10.8603 60.1396 10.8603C58.3535 10.8603 56.6139 11.0632 54.9426 11.4471C44.642 13.8131 36.9365 23.0554 36.9365 34.0635C36.9365 40.5021 39.5881 48.4878 43.9449 54.7321C47.4186 59.7108 51.9765 63.5825 57.1387 64.6803L52.9095 71.4468H57.3235C56.1889 74.3324 56.8953 77.1149 59.0704 79.2898C59.6036 79.8232 60.1488 80.2109 60.63 80.553L60.6303 80.5533C61.8491 81.4197 64.7921 84.6239 64.7921 88.5485H69.9484C69.9484 82.4669 65.8672 77.95 63.6182 76.3509C63.2564 76.0938 62.9441 75.8717 62.7164 75.644C61.9705 74.8981 61.916 74.3699 61.9517 73.9933C62.0301 73.1688 62.6523 72.2452 63.3788 71.447H67.369L63.1401 64.6804C63.2427 64.6586 63.3451 64.6357 63.4471 64.6118C68.6705 63.3844 73.2652 59.3194 76.7193 54.1696C78.4813 51.532 79.9087 48.6719 80.9578 45.9043L80.954 45.9027C82.4796 41.8716 83.3424 37.722 83.3424 34.064Z" fill="#FFCA48"/>
	<path d="M52.4053 23.751C52.4053 10.9568 41.9964 0.547852 29.2021 0.547852C16.4079 0.547852 5.99902 10.9568 5.99902 23.751C5.99902 35.3532 14.584 51.8974 26.2012 54.3679L21.9726 61.1338H24.5593C22.7708 63.7667 21.9423 66.1675 22.1006 68.2869C22.2565 70.3745 23.335 72.1254 25.2191 73.3502C26.7756 74.3618 26.3647 76.3975 24.8549 80.5785C24.1738 82.4647 23.5304 84.2462 23.5304 85.868H28.6867C28.6867 84.1683 31.1124 79.79 31.3477 75.9633C31.5811 72.1647 29.6719 70.0945 28.0291 69.0268C27.3806 68.6052 27.2679 68.2381 27.2428 67.9043C27.113 66.1912 29.1379 63.3176 31.1545 61.1336H36.4319L32.2031 54.3678C43.8399 51.8931 52.4053 35.3232 52.4053 23.751Z" fill="#8F81FC"/>
	<path d="M49.8894 13.249C51.4976 16.4041 52.4049 19.9736 52.4049 23.751C52.4049 32.1695 47.872 43.2329 40.9212 49.5905C38.3932 44.4574 36.9365 38.8352 36.9365 34.063C36.9365 24.9461 42.2219 17.0404 49.8894 13.249Z" fill="#8F81FC"/>
	<path d="M49.8894 13.249C51.4976 16.4041 52.4049 19.9736 52.4049 23.751C52.4049 32.1695 47.872 43.2329 40.9212 49.5905C38.3932 44.4574 36.9365 38.8352 36.9365 34.063C36.9365 24.9461 42.2219 17.0404 49.8894 13.249Z" fill="url(#paint0_linear)"/>
	<defs>
		<linearGradient id="paint0_linear" x1="43.3924" y1="22.8622" x2="61.9085" y2="28.766" gradientUnits="userSpaceOnUse">
			<stop stop-color="#1A49B9"/>
			<stop offset="1" stop-color="#1A49B9" stop-opacity="0"/>
		</linearGradient>
	</defs>
</svg>