<svg width="71" height="66" viewBox="0 0 71 66" fill="none" xmlns="http://www.w3.org/2000/svg">
	<path d="M44.7003 0.356445H8.74498C4.26029 0.356445 0.611328 4.0054 0.611328 8.4901V9.00009H52.834V8.4901C52.834 4.0054 49.185 0.356445 44.7003 0.356445Z" fill="#8F81FC"/>
	<path d="M0.611328 44.4454C0.611328 48.9301 4.26029 52.5791 8.74498 52.5791H44.7003C49.185 52.5791 52.834 48.9301 52.834 44.4454V12.06H0.611328V44.4454Z" fill="#8F81FC"/>
	<path d="M9.51533 24.1643H39.5682C40.4135 24.1643 41.0982 24.849 41.0982 25.6943C41.0982 26.5393 40.4135 27.2242 39.5682 27.2242H9.51533C8.67034 27.2242 7.98537 26.5393 7.98537 25.6943C7.98537 24.849 8.67034 24.1643 9.51533 24.1643ZM9.51533 30.2842H34.0199C34.8649 30.2842 35.5498 30.9688 35.5498 31.8141C35.5498 32.6591 34.8649 33.3441 34.0199 33.3441H9.51533C8.67034 33.3441 7.98537 32.6591 7.98537 31.8141C7.98537 30.9688 8.67034 30.2842 9.51533 30.2842ZM9.51533 36.404H36.9759C37.8209 36.404 38.5059 37.0887 38.5059 37.934C38.5059 38.779 37.8209 39.4639 36.9759 39.4639H9.51533C8.67034 39.4639 7.98537 38.779 7.98537 37.934C7.98537 37.0887 8.67034 36.404 9.51533 36.404Z" fill="#F3F5FA"/>
	<path d="M9.22496 6.20804C8.38029 6.20804 7.69531 5.52306 7.69531 4.67808C7.69531 3.83341 8.38029 3.14844 9.22496 3.14844C10.0699 3.14844 10.7549 3.83341 10.7549 4.67808C10.7549 5.52306 10.0699 6.20804 9.22496 6.20804ZM13.3049 6.20804C12.4602 6.20804 11.7752 5.52306 11.7752 4.67808C11.7752 3.83341 12.4602 3.14844 13.3049 3.14844C14.1498 3.14844 14.8348 3.83341 14.8348 4.67808C14.8348 5.52306 14.1498 6.20804 13.3049 6.20804ZM17.3847 6.20804C16.5401 6.20804 15.8551 5.52306 15.8551 4.67808C15.8551 3.83341 16.5401 3.14844 17.3847 3.14844C18.2297 3.14844 18.9147 3.83341 18.9147 4.67808C18.9147 5.52306 18.2297 6.20804 17.3847 6.20804Z" fill="#F3F5FA"/>
	<path d="M69.1985 29.9297C69.0407 29.5315 68.693 29.2395 68.2735 29.1527C67.8535 29.0658 67.4189 29.1961 67.116 29.4991L60.553 36.0621L57.0245 35.3034L56.2659 31.7749L62.8289 25.2118C63.1318 24.9089 63.2619 24.4738 63.1753 24.0544C63.0885 23.6348 62.7964 23.2872 62.3982 23.1292C57.8924 21.3424 52.7665 22.4019 49.3397 25.8285C47.69 27.4782 46.5572 29.5501 46.0638 31.8204C45.6416 33.7627 45.701 35.7695 46.2313 37.6723L28.7165 55.1872C27.5913 56.3122 26.9717 57.8081 26.9717 59.3993C26.9717 60.9904 27.5913 62.4863 28.7164 63.6114C29.8415 64.7365 31.3374 65.3561 32.9285 65.3561C34.5196 65.3561 36.0155 64.7365 37.1406 63.6114L54.6555 46.0965C56.5584 46.6268 58.5651 46.6861 60.5073 46.264C62.7777 45.7705 64.8496 44.6378 66.4993 42.9881C69.926 39.5615 70.9854 34.4356 69.1985 29.9297Z" fill="#FFCA48"/>
	<path d="M52.8335 44.4457C52.8335 48.9304 49.1846 52.5794 44.6999 52.5794H31.3242L46.2306 37.673C45.7002 35.7701 45.6409 33.7633 46.0631 31.821C46.5565 29.5508 47.6893 27.4788 49.3389 25.8292C50.3709 24.7973 51.5568 23.9801 52.8335 23.3906V44.4457Z" fill="#8F81FC"/>
	<path d="M52.8335 44.4457C52.8335 48.9304 49.1846 52.5794 44.6999 52.5794H31.3242L46.2306 37.673C45.7002 35.7701 45.6409 33.7633 46.0631 31.821C46.5565 29.5508 47.6893 27.4788 49.3389 25.8292C50.3709 24.7973 51.5568 23.9801 52.8335 23.3906V44.4457Z" fill="url(#paint0_linear)"/>
	<defs>
		<linearGradient id="paint0_linear" x1="40.3013" y1="31.1118" x2="61.1204" y2="46.0322" gradientUnits="userSpaceOnUse">
			<stop stop-color="#1A49B9"/>
			<stop offset="1" stop-color="#1A49B9" stop-opacity="0"/>
		</linearGradient>
	</defs>
</svg>