<svg width="89" height="77" viewBox="0 0 89 77" fill="none" xmlns="http://www.w3.org/2000/svg">
	<path d="M20.4047 0.386719H2.58062C1.52594 0.386719 0.670898 1.24176 0.670898 2.29644V6.75246H22.3144V2.29644C22.3144 1.24176 21.4594 0.386719 20.4047 0.386719Z" fill="#8F81FC"/>
	<path d="M64.8966 18.5907C64.3031 18.2503 63.5729 18.2532 62.9823 18.5987L44.0852 29.6497V20.2472C44.0852 19.563 43.7192 18.9312 43.1258 18.5907C42.5322 18.2503 41.8021 18.2532 41.2115 18.5987L22.3144 29.6497V10.5713H0.670898V63.6615C0.670898 64.7162 1.52594 65.5713 2.58062 65.5713H63.9463C65.001 65.5713 65.856 64.7162 65.856 63.6615V20.2472C65.856 19.563 65.49 18.9312 64.8966 18.5907ZM29.9533 52.1396C29.9533 53.1942 29.0982 54.0493 28.0436 54.0493H20.4047C19.35 54.0493 18.495 53.1942 18.495 52.1396V44.5007C18.495 43.446 19.35 42.5909 20.4047 42.5909H28.0436C29.0982 42.5909 29.9533 43.446 29.9533 44.5007V52.1396Z" fill="#8F81FC"/>
	<path d="M87.6547 50.0251L82.3163 48.715C82.0222 47.7793 81.6479 46.8702 81.1934 45.988L83.9205 41.4428C84.2413 40.9081 84.1611 40.2397 83.7334 39.8119L79.9368 36.0154C79.5091 35.5876 78.8407 35.5074 78.3059 35.8282L73.7608 38.5553C72.8785 38.1008 71.9695 37.7265 71.0337 37.4324L69.7504 32.0941C69.59 31.5059 69.0552 31.0781 68.4403 31.0781H63.0931C62.4782 31.0781 61.9434 31.5059 61.783 32.0941L60.4997 37.4324C59.5639 37.7265 58.6549 38.1008 57.7726 38.5553L53.2275 35.8282C52.6927 35.5074 52.0243 35.5876 51.5966 36.0154L47.8 39.8119C47.3723 40.2397 47.2921 40.9081 47.6129 41.4428L50.34 45.988C49.8855 46.8702 49.5112 47.7793 49.2171 48.715L44.057 50.0251C43.4688 50.1588 43.041 50.6935 43.041 51.3084V56.6557C43.041 57.2706 43.4688 57.8053 44.057 57.939L49.2171 59.2491C49.5112 60.1848 49.8855 61.0939 50.34 61.9761L47.6129 66.5213C47.2921 67.056 47.3723 67.7244 47.8 68.1522L51.5966 71.9487C52.0243 72.3765 52.6927 72.4567 53.2275 72.1359L57.7726 69.4088C58.6549 69.8633 59.5639 70.2376 60.4997 70.5317L61.783 75.6918C61.9434 76.28 62.4782 76.7077 63.0931 76.7077H68.4403C69.0552 76.7077 69.59 76.28 69.7504 75.6918L71.0337 70.5317C71.9695 70.2376 72.8785 69.8633 73.7608 69.4088L78.3059 72.1359C78.8407 72.4567 79.5091 72.3765 79.9368 71.9487L83.7334 68.1522C84.1611 67.7244 84.2413 67.056 83.9205 66.5213L81.1934 61.9761C81.6479 61.0939 82.0222 60.1848 82.3163 59.2491L87.6547 57.939C88.2428 57.8053 88.6706 57.2706 88.6706 56.6557V51.3084C88.6706 50.6935 88.2428 50.1588 87.6547 50.0251ZM65.7667 60.6661C62.0771 60.6661 59.0827 57.6716 59.0827 53.982C59.0827 50.2925 62.0771 47.298 65.7667 47.298C69.4563 47.298 72.4507 50.2925 72.4507 53.982C72.4507 57.6716 69.4563 60.6661 65.7667 60.6661Z" fill="#FFCA48"/>
	<path d="M65.8558 63.6624C65.8558 64.7171 65.0008 65.5722 63.9461 65.5722H48.1824L50.34 61.9761C49.8855 61.0939 49.5112 60.1848 49.2171 59.2491L44.057 57.939C43.4688 57.8053 43.041 57.2706 43.041 56.6557V51.3084C43.041 50.6935 43.4688 50.1588 44.057 50.0251L49.2171 48.715C49.5112 47.7793 49.8855 46.8702 50.34 45.988L47.6129 41.4428C47.2921 40.9081 47.3723 40.2397 47.8 39.8119L51.5966 36.0154C52.0243 35.5876 52.6927 35.5074 53.2275 35.8282L57.7726 38.5553C58.6549 38.1008 59.5639 37.7265 60.4997 37.4324L61.783 32.0941C61.9434 31.5059 62.4782 31.0781 63.0931 31.0781H65.8558L65.7667 47.298C62.0771 47.298 59.0827 50.2925 59.0827 53.9821C59.0827 57.6716 62.0771 60.6661 65.7667 60.6661L65.8558 63.6624Z" fill="#8F81FC"/>
	<path d="M65.8558 63.6624C65.8558 64.7171 65.0008 65.5722 63.9461 65.5722H48.1824L50.34 61.9761C49.8855 61.0939 49.5112 60.1848 49.2171 59.2491L44.057 57.939C43.4688 57.8053 43.041 57.2706 43.041 56.6557V51.3084C43.041 50.6935 43.4688 50.1588 44.057 50.0251L49.2171 48.715C49.5112 47.7793 49.8855 46.8702 50.34 45.988L47.6129 41.4428C47.2921 40.9081 47.3723 40.2397 47.8 39.8119L51.5966 36.0154C52.0243 35.5876 52.6927 35.5074 53.2275 35.8282L57.7726 38.5553C58.6549 38.1008 59.5639 37.7265 60.4997 37.4324L61.783 32.0941C61.9434 31.5059 62.4782 31.0781 63.0931 31.0781H65.8558L65.7667 47.298C62.0771 47.298 59.0827 50.2925 59.0827 53.9821C59.0827 57.6716 62.0771 60.6661 65.7667 60.6661L65.8558 63.6624Z" fill="url(#paint0_linear)"/>
	<path d="M65.767 60.6659C62.0775 60.6659 59.083 57.6715 59.083 53.9819C59.083 50.2923 62.0775 47.2979 65.767 47.2979C69.4566 47.2979 72.4511 50.2923 72.4511 53.9819C72.4511 57.6715 69.4566 60.6659 65.767 60.6659Z" fill="white"/>
	<defs>
		<linearGradient id="paint0_linear" x1="52.563" y1="40.2027" x2="76.7194" y2="52.1712" gradientUnits="userSpaceOnUse">
			<stop stop-color="#1A49B9"/>
			<stop offset="1" stop-color="#1A49B9" stop-opacity="0"/>
		</linearGradient>
	</defs>
</svg>