<svg width="71" height="71" viewBox="0 0 71 71" fill="none" xmlns="http://www.w3.org/2000/svg">
	<path d="M64.3075 12.8232H32.8964L28.1758 69.6703C29.0054 70.0852 29.8976 70.3818 30.8778 70.3818H64.3075C67.7001 70.3818 70.4599 67.622 70.4599 64.2295V18.9756C70.4599 15.583 67.7001 12.8232 64.3075 12.8232Z" fill="#FFCA48"/>
	<path d="M23.6836 56.1436L24.7731 64.9921C24.9919 66.7495 26.1813 68.6729 28.1755 69.67C32.1632 65.3805 29.4899 68.1194 38.9529 57.94L23.6836 56.1436Z" fill="#1A49B9"/>
	<path d="M35.3946 44.4345C36.058 44.9651 36.1655 45.933 35.6349 46.5963C35.1043 47.2595 34.1363 47.3671 33.4731 46.8364L25.7829 40.6843C25.014 40.0693 25.0135 38.8977 25.7829 38.2823L33.4731 32.1301C34.1361 31.5995 35.1041 31.7069 35.6349 32.3702C36.1655 33.0336 36.058 34.0015 35.3946 34.532L29.2058 39.4834L35.3946 44.4345ZM49.6898 29.323L40.4616 50.8555C40.1271 51.6361 39.2231 51.998 38.4421 51.6633C37.6614 51.3287 37.2996 50.4244 37.6343 49.6437L46.8625 28.1112C47.1972 27.3305 48.1014 26.9689 48.8821 27.3034C49.6628 27.638 50.0245 28.5422 49.6898 29.323ZM61.5412 40.6844L53.851 46.8365C53.1889 47.3664 52.2207 47.2606 51.6893 46.5964C51.1587 45.9331 51.2661 44.9651 51.9295 44.4346L58.1184 39.4834L51.9295 34.5322C51.2661 34.0016 51.1587 33.0338 51.6893 32.3705C52.2198 31.7071 53.1877 31.5996 53.851 32.1303L61.5412 38.2825C62.3101 38.8974 62.3106 40.0689 61.5412 40.6844Z" fill="#F3F5FA"/>
	<path d="M38.9533 57.9404C39.6241 57.1737 40.2126 56.659 40.0543 55.6032L33.8418 5.77115C33.4592 2.69895 30.8337 0.381836 27.7375 0.381836H6.6123C3.21977 0.381836 0.459961 3.14164 0.459961 6.53418V51.7881C0.459961 55.1806 3.21977 57.9404 6.6123 57.9404C17.3313 57.9404 28.1999 57.9404 38.9533 57.9404Z" fill="#8F81FC"/>
	<path d="M23.1154 16.5223C22.9232 15.565 22.082 14.874 21.1047 14.874H17.0031C16.0259 14.874 15.1846 15.565 14.9924 16.5223L10.8908 37.0301C10.6685 38.1416 11.3895 39.221 12.4991 39.4433C13.6226 39.6737 14.692 38.9447 14.9123 37.8351L16.223 31.2803H21.8847L23.1954 37.8351C23.4198 38.9613 24.5212 39.6671 25.6086 39.4433C26.7181 39.221 27.4391 38.1416 27.2168 37.0301L23.1154 16.5223ZM17.0432 27.1787L18.6834 18.9756H19.4244L21.0646 27.1787H17.0432Z" fill="#F3F5FA"/>
</svg>