<svg width="71" height="71" viewBox="0 0 71 71" fill="none" xmlns="http://www.w3.org/2000/svg">
	<path d="M70.2869 66.9526L65.8211 61.8044C69.0399 57.7777 70.7936 52.7992 70.7936 47.5951C70.7936 35.0306 60.5718 24.8086 48.0072 24.8086C35.4426 24.8086 25.2207 35.0306 25.2207 47.5951C25.2207 60.1595 35.4427 70.3815 48.0072 70.3815H68.7221C69.5333 70.3815 70.2699 69.908 70.6066 69.1701C70.9435 68.4321 70.8185 67.5655 70.2869 66.9526Z" fill="#FFCA48"/>
	<path d="M1.30096 42.5259L5.76683 37.3777C2.548 33.3509 0.79427 28.3724 0.79427 23.1683C0.79427 10.6038 11.0161 0.381836 23.5807 0.381836C36.1453 0.381836 46.3672 10.6038 46.3672 23.1683C46.3672 35.7327 36.1452 45.9548 23.5807 45.9548H2.86577C2.05457 45.9548 1.31794 45.4812 0.981255 44.7433C0.644432 44.0053 0.769413 43.1388 1.30096 42.5259Z" fill="#8F81FC"/>
	<path d="M46.3039 24.8721C45.4715 36.0814 36.4936 45.0594 25.2842 45.8918C26.1166 34.6825 35.0945 25.7045 46.3039 24.8721Z" fill="url(#paint0_linear)"/>
	<path d="M23.5799 37.2548C22.4359 37.2548 21.5084 36.3273 21.5084 35.1833C21.5084 34.0393 22.4359 33.1118 23.5799 33.1118C24.7239 33.1118 25.6514 34.0393 25.6514 35.1833C25.6514 36.3273 24.7241 37.2548 23.5799 37.2548ZM29.3432 22.3623C28.3338 23.4254 27.048 24.1823 25.6515 24.5615V28.9117C25.6515 30.0557 24.7241 30.9832 23.58 30.9832C22.436 30.9832 21.5085 30.0557 21.5085 28.9117V22.7675C21.5085 21.6234 22.436 20.696 23.58 20.696C24.6328 20.696 25.6124 20.2746 26.3389 19.5097C27.0644 18.7454 27.4338 17.7428 27.379 16.6865C27.2764 14.7088 25.6426 13.1281 23.6596 13.0882C23.6336 13.0876 23.6077 13.0874 23.5817 13.0874C21.6877 13.0874 20.0745 14.4809 19.8125 16.3585C19.7881 16.5334 19.7758 16.7128 19.7758 16.8917C19.7758 18.0358 18.8483 18.9632 17.7043 18.9632C16.5603 18.9632 15.6328 18.0358 15.6328 16.8917C15.6328 16.5219 15.6586 16.15 15.7093 15.786C16.2648 11.8055 19.723 8.86358 23.743 8.94603C27.8872 9.02958 31.3017 12.3353 31.5165 16.4718C31.6307 18.6739 30.8589 20.766 29.3432 22.3623Z" fill="#F3F5FA"/>
	<path d="M41.1029 53.8098H54.9129C56.0569 53.8098 56.9844 52.8824 56.9844 51.7384C56.9844 50.5943 56.0569 49.6669 54.9129 49.6669H41.1029C39.9589 49.6669 39.0314 50.5943 39.0314 51.7384C39.0314 52.8824 39.9589 53.8098 41.1029 53.8098Z" fill="#F3F5FA"/>
	<path d="M41.1029 45.5239H54.9129C56.0569 45.5239 56.9844 44.5964 56.9844 43.4524C56.9844 42.3083 56.0569 41.3809 54.9129 41.3809L41.1029 41.3809C39.9589 41.3809 39.0314 42.3083 39.0314 43.4524C39.0314 44.5964 39.9589 45.5239 41.1029 45.5239Z" fill="#F3F5FA"/>
	<defs>
		<linearGradient id="paint0_linear" x1="26.2565" y1="28.4436" x2="47.0966" y2="44.8872" gradientUnits="userSpaceOnUse">
			<stop stop-color="#1A49B9"/>
			<stop offset="1" stop-color="#1A49B9" stop-opacity="0"/>
		</linearGradient>
	</defs>
</svg>