<svg width="71" height="61" viewBox="0 0 71 61" fill="none" xmlns="http://www.w3.org/2000/svg">
	<path d="M41.9278 27.6426H29.5563C23.9865 27.6426 19.4551 32.174 19.4551 37.7438V58.1963C19.4551 59.3119 20.3596 60.2165 21.4753 60.2165H50.0088C51.1245 60.2165 52.029 59.3121 52.029 58.1963V37.7438C52.029 32.174 47.4976 27.6426 41.9278 27.6426Z" fill="#8F81FC"/>
	<path d="M35.7422 0.859375C29.0438 0.859375 23.5942 6.30891 23.5942 13.0075C23.5942 17.551 26.102 21.5192 29.8054 23.6026C31.562 24.5907 33.5872 25.1554 35.7422 25.1554C37.8972 25.1554 39.9223 24.5907 41.679 23.6026C45.3825 21.5192 47.8901 17.5509 47.8901 13.0075C47.8901 6.30905 42.4406 0.859375 35.7422 0.859375Z" fill="#8F81FC"/>
	<path d="M14.4103 12.1826C9.40066 12.1826 5.3252 16.2581 5.3252 21.2677C5.3252 26.2773 9.40066 30.3528 14.4103 30.3528C15.681 30.3528 16.8911 30.0895 17.9903 29.6164C19.8908 28.7981 21.4579 27.3497 22.4275 25.5354C23.1082 24.2621 23.4953 22.8095 23.4953 21.2677C23.4953 16.2582 19.4199 12.1826 14.4103 12.1826Z" fill="#FFCA48"/>
	<path d="M57.0738 12.1826C52.0642 12.1826 47.9888 16.2581 47.9888 21.2677C47.9888 22.8096 48.376 24.2622 49.0566 25.5354C50.0262 27.3499 51.5933 28.7983 53.4938 29.6164C54.593 30.0895 55.8031 30.3528 57.0738 30.3528C62.0834 30.3528 66.1589 26.2773 66.1589 21.2677C66.1589 16.2581 62.0834 12.1826 57.0738 12.1826Z" fill="#FFCA48"/>
	<path d="M0.754883 43.0074C0.754883 37.4376 5.28628 32.9062 10.8561 32.9062H14.4361H18.0161C23.5859 32.9062 28.1173 37.4376 28.1173 43.0074V54.157C28.1173 57.4989 25.3986 60.2178 22.0566 60.2178H14.4361H6.81561C3.47364 60.2178 0.754883 57.4989 0.754883 54.157V43.0074Z" fill="#FFCA48"/>
	<path d="M43.3926 43.0065C43.3926 37.4367 47.924 32.9053 53.4938 32.9053H57.0738H60.6538C66.2236 32.9053 70.755 37.4367 70.755 43.0065V54.1561C70.755 57.4979 68.0363 60.2168 64.6943 60.2168H57.0738H49.4533C46.1113 60.2168 43.3926 57.4979 43.3926 54.1561V43.0065Z" fill="#FFCA48"/>
	<path d="M19.4551 58.1962V37.7437C19.4551 36.1187 19.8408 34.5822 20.5254 33.2207C24.8853 34.3393 28.1173 38.3026 28.1173 43.0065V54.1561C28.1173 57.4979 25.3986 60.2168 22.0566 60.2168L21.4753 60.2165C20.3596 60.2165 19.4551 59.3118 19.4551 58.1962Z" fill="#8F81FC"/>
	<path d="M52.0292 58.1965C52.0292 59.3123 51.1247 60.2168 50.0089 60.2168L49.4533 60.2167C46.1113 60.2167 43.3926 57.4979 43.3926 54.156V43.0064C43.3926 38.3108 46.6133 34.3531 50.9616 33.2266C51.6445 34.5866 52.0292 36.1213 52.0292 37.744V58.1965Z" fill="#8F81FC"/>
	<path d="M19.4551 58.1962V37.7437C19.4551 36.1187 19.8408 34.5822 20.5254 33.2207C24.8853 34.3393 28.1173 38.3026 28.1173 43.0065V54.1561C28.1173 57.4979 25.3986 60.2168 22.0566 60.2168L21.4753 60.2165C20.3596 60.2165 19.4551 59.3118 19.4551 58.1962Z" fill="url(#paint0_linear)"/>
	<path d="M52.0292 58.1965C52.0292 59.3123 51.1247 60.2168 50.0089 60.2168L49.4533 60.2167C46.1113 60.2167 43.3926 57.4979 43.3926 54.156V43.0064C43.3926 38.3108 46.6133 34.3531 50.9616 33.2266C51.6445 34.5866 52.0292 36.1213 52.0292 37.744V58.1965Z" fill="url(#paint1_linear)"/>
	<defs>
		<linearGradient id="paint0_linear" x1="19.4551" y1="46.7187" x2="34.6184" y2="46.7187" gradientUnits="userSpaceOnUse">
			<stop stop-color="#1A49B9"/>
			<stop offset="1" stop-color="#1A49B9" stop-opacity="0"/>
		</linearGradient>
		<linearGradient id="paint1_linear" x1="38.7765" y1="46.7217" x2="52.0292" y2="46.7217" gradientUnits="userSpaceOnUse">
			<stop stop-color="#1A49B9" stop-opacity="0"/>
			<stop offset="1" stop-color="#1A49B9"/>
		</linearGradient>
	</defs>
</svg>