<svg width="27" height="27" viewBox="0 0 27 27" fill="#1E2532" xmlns="http://www.w3.org/2000/svg">
	<path d="M18.439 1.72363H3.40117C1.77973 1.72363 0.460938 3.04242 0.460938 4.66387V17.8416C0.460938 18.4657 1.16675 18.8175 1.66496 18.4616L5.85289 15.4737C6.2043 15.2233 6.61766 15.0908 7.0493 15.0908H16.2605C17.882 15.0908 19.2007 13.772 19.2007 12.1505V2.48535C19.2007 2.06488 18.8595 1.72363 18.439 1.72363ZM14.7391 10.9511H5.9382C5.51773 10.9511 5.17648 10.6104 5.17648 10.1894C5.17648 9.76891 5.51773 9.42766 5.9382 9.42766H14.7391C15.1596 9.42766 15.5008 9.76891 15.5008 10.1894C15.5008 10.6104 15.1596 10.9511 14.7391 10.9511ZM14.7391 7.39641H5.9382C5.51773 7.39641 5.17648 7.05566 5.17648 6.63469C5.17648 6.21422 5.51773 5.87297 5.9382 5.87297H14.7391C15.1596 5.87297 15.5008 6.21422 15.5008 6.63469C15.5008 7.05566 15.1596 7.39641 14.7391 7.39641Z"/>
	<path d="M26.4605 10.5726V23.7498C26.4605 24.3697 25.7583 24.7283 25.2565 24.3698L21.0686 21.3824C20.7171 21.132 20.3038 20.9995 19.8721 20.9995H10.6609C9.03949 20.9995 7.7207 19.6802 7.7207 18.0587V16.6145H16.2601C18.7214 16.6145 20.7237 14.6122 20.7237 12.1509V7.63184H23.5203C25.1417 7.63184 26.4605 8.95113 26.4605 10.5726Z"/>
</svg>