<svg width="27" height="27" viewBox="0 0 27 27" fill="#1E2532" xmlns="http://www.w3.org/2000/svg">
	<path d="M25.2601 16.0832C24.7368 21.3512 20.4683 25.5854 15.1965 26.0698C8.9647 26.6424 3.65072 22.0606 3.03432 16.1053H1.93603C1.26832 16.1053 0.851 15.3824 1.18492 14.8042L3.64124 10.5506C3.97512 9.97246 4.80967 9.9725 5.14351 10.5507L7.59936 14.8042C7.9332 15.3825 7.51588 16.1053 6.84821 16.1053H5.89207C6.51322 20.5516 10.6527 23.8862 15.3987 23.1906C18.9107 22.6759 21.7595 19.9051 22.3564 16.4061C23.2499 11.1691 19.2199 6.61115 14.1455 6.61115C12.5 6.61115 10.9117 7.08859 9.54741 7.99268C8.91423 8.41225 8.03652 8.32924 7.572 7.7283C7.06623 7.07397 7.22414 6.13988 7.89857 5.68446C9.36235 4.69561 11.0218 4.07764 12.7603 3.86246V2.25016H11.6224C11.2309 2.25016 10.9136 1.93281 10.9136 1.54128V0.827046C10.9136 0.435517 11.2309 0.118164 11.6224 0.118164H16.8994C17.2909 0.118164 17.6083 0.435517 17.6083 0.827046V1.54128C17.6083 1.93277 17.2909 2.25016 16.8994 2.25016H15.646V3.87929C21.46 4.66375 25.8707 9.93452 25.2601 16.0832ZM25.6272 5.35491L23.4898 3.37921C23.2022 3.11347 22.7538 3.13111 22.488 3.41859L21.9226 4.03031C21.6568 4.3178 21.6745 4.7663 21.962 5.03208L24.0994 7.00774C24.3869 7.27343 24.8354 7.25584 25.1012 6.96836L25.6666 6.35663C25.9324 6.06915 25.9147 5.62065 25.6272 5.35491ZM14.1119 8.06851V15.0016H20.9758C20.9759 10.7794 17.7725 8.06851 14.1119 8.06851Z"/>
</svg>