<svg width="26" height="27" viewBox="0 0 26 27" fill="#1E2532" xmlns="http://www.w3.org/2000/svg">
	<path d="M14.7503 15.0445C14.7503 12.8334 12.9579 11.041 10.7468 11.041C9.33182 11.041 8.08829 11.7752 7.37623 12.8833C6.66423 11.7752 5.4207 11.041 4.00563 11.041C1.79456 11.041 0.0021366 12.8334 0.0021366 15.0445C0.0021366 15.0445 -0.332562 19.4164 7.37623 24.4203C15.085 19.4164 14.7503 15.0445 14.7503 15.0445Z" fill="#8F81FC"/>
	<path d="M25.9969 7.20936C25.9969 4.11551 23.4888 1.60742 20.3949 1.60742C18.4149 1.60742 16.6749 2.63468 15.6786 4.18528C14.6824 2.63468 12.9423 1.60742 10.9623 1.60742C7.86848 1.60742 5.36039 4.11551 5.36039 7.20936C5.36039 7.20936 5.28437 8.20477 5.90132 9.85191C6.43152 10.0448 6.92898 10.3171 7.37611 10.6617C8.32739 9.92849 9.50445 9.51802 10.7467 9.51802C12.223 9.51802 13.6109 10.0929 14.6548 11.1368C15.6888 12.1708 16.2627 13.5424 16.2735 15.0031C16.2895 15.3884 16.2581 16.699 15.31 18.5507C15.1215 18.9188 14.9071 19.2866 14.6685 19.653C14.9939 19.8772 15.3303 20.1024 15.6787 20.3285C26.4652 13.3267 25.9969 7.20936 25.9969 7.20936Z"/>
</svg>