<svg width="29" height="28" viewBox="0 0 29 28" fill="none" xmlns="http://www.w3.org/2000/svg">
<g clip-path="url(#clip0_1101_949)">
<path d="M28.5326 27.9996V27.9984H28.5396V17.7294C28.5396 12.7058 27.4581 8.83594 21.5851 8.83594C18.7617 8.83594 16.867 10.3853 16.0935 11.8541H16.0119V9.30494H10.4434V27.9984H16.2417V18.7421C16.2417 16.3049 16.7037 13.9483 19.7219 13.9483C22.6957 13.9483 22.7401 16.7296 22.7401 18.8984V27.9996H28.5326Z" fill="#9EA2AA"/>
<path d="M1.00195 9.30664H6.80729V28.0001H1.00195V9.30664Z" fill="#9EA2AA"/>
<path d="M3.9014 0C2.04523 0 0.539062 1.50617 0.539062 3.36233C0.539062 5.2185 2.04523 6.75617 3.9014 6.75617C5.75756 6.75617 7.26373 5.2185 7.26373 3.36233C7.26256 1.50617 5.7564 0 3.9014 0V0Z" fill="#9EA2AA"/>
</g>
<defs>
<clipPath id="clip0_1101_949">
<rect width="28" height="28" fill="white" transform="translate(0.539062)"/>
</clipPath>
</defs>
</svg>
