<svg width="15" height="14" viewBox="0 0 15 14" fill="none" xmlns="http://www.w3.org/2000/svg">
<g clip-path="url(#clip0)">
<path d="M7.40035 6.74384C8.32683 6.74384 9.12908 6.41155 9.78458 5.75594C10.4401 5.10044 10.7724 4.2984 10.7724 3.37181C10.7724 2.44555 10.4401 1.6434 9.78448 0.987682C9.12887 0.332289 8.32672 0 7.40035 0C6.47376 0 5.67172 0.332289 5.01622 0.987789C4.36072 1.64329 4.02832 2.44544 4.02832 3.37181C4.02832 4.2984 4.36072 5.10055 5.01632 5.75605C5.67193 6.41144 6.47408 6.74384 7.40035 6.74384Z" fill="#1E2532"/>
<path d="M13.3004 10.7654C13.2814 10.4926 13.2432 10.1951 13.1869 9.88083C13.1301 9.56424 13.0569 9.26496 12.9693 8.99142C12.8789 8.70869 12.7558 8.42948 12.6037 8.16192C12.4459 7.88421 12.2604 7.64239 12.0524 7.4434C11.8348 7.23523 11.5684 7.06785 11.2604 6.94577C10.9534 6.82433 10.6132 6.7628 10.2493 6.7628C10.1064 6.7628 9.96817 6.82144 9.70125 6.99522C9.53697 7.10235 9.34482 7.22626 9.13034 7.36329C8.94695 7.48015 8.6985 7.58963 8.39164 7.68875C8.09224 7.78563 7.78826 7.83476 7.48823 7.83476C7.18819 7.83476 6.88432 7.78563 6.58461 7.68875C6.27806 7.58973 6.02961 7.48025 5.84643 7.3634C5.63399 7.22764 5.44173 7.10374 5.27499 6.99512C5.00839 6.82133 4.87007 6.7627 4.72716 6.7627C4.36315 6.7627 4.02306 6.82433 3.71619 6.94588C3.40836 7.06775 3.14187 7.23512 2.92408 7.44351C2.71612 7.64261 2.53059 7.88432 2.37294 8.16192C2.22094 8.42948 2.0979 8.70858 2.00732 8.99152C1.91984 9.26507 1.84668 9.56424 1.78986 9.88083C1.73357 10.1946 1.69533 10.4923 1.67642 10.7658C1.65784 11.0336 1.64844 11.3117 1.64844 11.5925C1.64844 12.3233 1.88075 12.9149 2.33886 13.3512C2.79132 13.7818 3.38999 14.0002 4.11802 14.0002H10.8591C11.5871 14.0002 12.1856 13.7819 12.6381 13.3512C13.0963 12.9152 13.3287 12.3235 13.3287 11.5924C13.3286 11.3103 13.319 11.032 13.3004 10.7654Z" fill="#1E2532"/>
</g>
<defs>
<clipPath id="clip0">
<rect width="13.9999" height="14" fill="white" transform="translate(0.5)"/>
</clipPath>
</defs>
</svg>
