<svg width="28" height="28" viewBox="0 0 28 28" fill="#9EA2AA" xmlns="http://www.w3.org/2000/svg">
	<path d="M21.652 16.4778C20.3638 16.4778 19.158 15.9318 18.061 15.0429L18.328 13.7888L18.3398 13.743C18.5781 12.4076 19.3322 10.1651 21.652 10.1651C23.3918 10.1651 24.807 11.5829 24.807 13.324C24.8018 15.06 23.3866 16.4778 21.652 16.4778ZM21.652 6.96421C18.6881 6.96421 16.3905 8.89258 15.4571 12.0633C14.0301 9.92025 12.9514 7.34779 12.3191 5.18115H9.13V13.4916C9.13 15.1293 7.79599 16.4647 6.15956 16.4647C4.52313 16.4647 3.19042 15.1293 3.19042 13.4916V5.18115H3.74818e-05V13.4916C-0.0117448 16.8954 2.75578 19.6891 6.15432 19.6891C9.55286 19.6891 12.3204 16.8954 12.3204 13.4916V12.0974C12.9409 13.3921 13.7002 14.6986 14.6232 15.8612L12.6686 25.0605H15.9349L17.3501 18.3878C18.5912 19.1838 20.0182 19.6825 21.6546 19.6825C25.1526 19.6825 28 16.8129 28 13.3109C27.9974 9.81552 25.15 6.96421 21.652 6.96421Z"/>
</svg>