<svg width="25" height="26" viewBox="0 0 25 26" fill="#9BA0AA" xmlns="http://www.w3.org/2000/svg">
	<path d="M18.9607 18.3061C17.6342 19.3673 15.7771 20.1633 13.9199 20.1633C9.67503 20.1633 6.75666 16.9796 6.75666 12.7347C6.75666 8.48979 9.67503 5.57143 13.9199 5.57143C15.7771 5.57143 17.6342 6.10204 18.9607 7.42857L19.7567 8.22449L24.0016 4.24489L22.9403 3.44897C20.5526 1.32653 17.3689 0 13.9199 0C6.49136 0 0.919922 5.57143 0.919922 13C0.919922 20.4286 6.49136 26 13.9199 26C17.3689 26 20.5526 24.6735 22.9403 22.551L24.0016 21.7551L19.7567 17.5102L18.9607 18.3061Z"/>
	<path d="M13.6551 17.2447C15.9995 17.2447 17.9 15.3442 17.9 12.9998C17.9 10.6554 15.9995 8.75488 13.6551 8.75488C11.3107 8.75488 9.41016 10.6554 9.41016 12.9998C9.41016 15.3442 11.3107 17.2447 13.6551 17.2447Z"/>
</svg>