<svg width="15" height="15" viewBox="0 0 15 15" fill="black" opacity=".4" xmlns="http://www.w3.org/2000/svg">
	<path d="M7.92964 0.0390625C5.13388 0.0390625 2.85938 2.31357 2.85938 5.1093C2.85938 8.5789 7.39677 13.6725 7.58995 13.8876C7.77141 14.0897 8.08821 14.0893 8.26934 13.8876C8.46252 13.6725 12.9999 8.5789 12.9999 5.1093C12.9999 2.31357 10.7254 0.0390625 7.92964 0.0390625ZM7.92964 7.66028C6.52303 7.66028 5.37869 6.51592 5.37869 5.1093C5.37869 3.70269 6.52305 2.55835 7.92964 2.55835C9.33623 2.55835 10.4806 3.70271 10.4806 5.10933C10.4806 6.51595 9.33623 7.66028 7.92964 7.66028Z"/>
</svg>
