<svg width="15" height="15" viewBox="0 0 15 15" fill="black" opacity=".4" xmlns="http://www.w3.org/2000/svg">
	<path d="M14.7344 7.03906C14.7344 3.17926 11.5942 0.0390625 7.73438 0.0390625C3.87457 0.0390625 0.734375 3.17926 0.734375 7.03906C0.734375 10.8989 3.87457 14.0391 7.73438 14.0391C11.5942 14.0391 14.7344 10.8989 14.7344 7.03906ZM8.8257 10.8936H8.46086V12.0872H7.00789V10.8936H5.04804V9.44062H8.8257C9.30464 9.44062 9.69428 9.05098 9.69428 8.57204C9.69428 8.09309 9.30464 7.70346 8.8257 7.70346H7.0726C5.82673 7.70346 4.81314 6.68987 4.81314 5.444C4.81314 4.21978 5.79191 3.22062 7.00789 3.18614V1.99093H8.46086V3.18449H10.0324V4.63746H7.0726C6.62789 4.63746 6.26611 4.99924 6.26611 5.444C6.26611 5.8887 6.62789 6.25049 7.0726 6.25049H8.8257C10.1058 6.25049 11.1472 7.29193 11.1472 8.57204C11.1472 9.85215 10.1058 10.8936 8.8257 10.8936Z"/>
</svg>
