<svg width="15" height="15" viewBox="0 0 15 15" fill="black" opacity=".4" xmlns="http://www.w3.org/2000/svg">
	<path d="M7.46875 0.0390625C3.6088 0.0390625 0.46875 3.17911 0.46875 7.03906C0.46875 10.899 3.6088 14.0391 7.46875 14.0391C11.3287 14.0391 14.4688 10.899 14.4688 7.03906C14.4688 3.17911 11.3287 0.0390625 7.46875 0.0390625ZM10.7979 10.6598C10.6841 10.7735 10.5348 10.8308 10.3855 10.8308C10.2361 10.8308 10.0867 10.7735 9.97305 10.6598L7.05635 7.74316C6.94666 7.63411 6.88545 7.48586 6.88545 7.33076V3.53906C6.88545 3.21649 7.14671 2.95576 7.46875 2.95576C7.79079 2.95576 8.05205 3.21649 8.05205 3.53906V7.08926L10.7979 9.83496C11.0259 10.0631 11.0259 10.4317 10.7979 10.6598Z"/>
</svg>
