<svg width="28" height="28" viewBox="0 0 28 28" fill="#9EA2AA" xmlns="http://www.w3.org/2000/svg">
	<path transform="translate(0,5)" d="M11.3001 8.31507C11.3001 8.31507 13.9494 8.1184 13.9494 5.01175C13.9494 1.90488 11.7819 0.388672 9.03641 0.388672H0.00195312V17.7503H9.03641C9.03641 17.7503 14.5516 17.9245 14.5516 12.6259C14.5516 12.626 14.7921 8.31507 11.3001 8.31507ZM8.38612 3.4745H9.03641C9.03641 3.4745 10.2645 3.4745 10.2645 5.2809C10.2645 7.08708 9.54224 7.34895 8.72304 7.34895H3.98265V3.4745H8.38612ZM8.78112 14.6646H3.98265V10.0249H9.03641C9.03641 10.0249 10.8668 10.0009 10.8668 12.4092C10.8668 14.4399 9.49967 14.6492 8.78112 14.6646ZM21.9071 4.80598C15.2303 4.80598 15.2363 11.4768 15.2363 11.4768C15.2363 11.4768 14.7782 18.1135 21.9071 18.1135C21.9071 18.1135 27.8478 18.4528 27.8478 13.4967H24.7926C24.7926 13.4967 24.8945 15.3631 22.009 15.3631C22.009 15.3631 18.9533 15.5679 18.9533 12.3426H27.9497C27.9497 12.3425 28.9341 4.80598 21.9071 4.80598ZM18.9197 10.0249C18.9197 10.0249 19.2928 7.3489 21.975 7.3489C24.6566 7.3489 24.623 10.0249 24.623 10.0249H18.9197ZM25.3347 3.54945H18.1717V1.41149H25.3347V3.54945Z"/>
</svg>
