<svg width="28" height="28" viewBox="0 0 28 28" fill="#9EA2AA" xmlns="http://www.w3.org/2000/svg">
	<path transform="translate(0,-.2)" d="M0 14.2539C0 11.7152 0.625352 9.37258 1.876 7.22591C3.12668 5.07923 4.82535 3.38058 6.972 2.12991C9.11868 0.87923 11.4614 0.253906 14 0.253906C16.5387 0.253906 18.8814 0.87923 21.028 2.12991C23.1747 3.38058 24.8734 5.07923 26.124 7.22591C27.3747 9.37258 28 11.7152 28 14.2539C28 16.7926 27.3747 19.1352 26.124 21.2819C24.8734 23.4286 23.1747 25.1272 21.028 26.3779C18.8814 27.6286 16.5387 28.2539 14 28.2539C11.4614 28.2539 9.11868 27.6286 6.972 26.3779C4.82535 25.1272 3.12668 23.4286 1.876 21.2819C0.625352 19.1352 0 16.7926 0 14.2539ZM2.324 14.2539C2.324 17.1659 3.304 19.7326 5.264 21.9539C6.16 20.1992 7.57868 18.5286 9.52 16.9419C11.4614 15.3552 13.356 14.3566 15.204 13.9459C14.924 13.2926 14.6534 12.7046 14.392 12.1819C11.1814 13.2086 7.70935 13.7219 3.976 13.7219C3.248 13.7219 2.70668 13.7126 2.352 13.6939C2.352 13.7686 2.34735 13.8619 2.338 13.9739C2.32868 14.0859 2.324 14.1792 2.324 14.2539ZM2.688 11.3699C3.09868 11.4072 3.70535 11.4259 4.508 11.4259C7.62535 11.4259 10.584 11.0059 13.384 10.1659C11.9654 7.64591 10.4067 5.54591 8.708 3.86591C7.23335 4.61258 5.96868 5.64858 4.914 6.97391C3.85935 8.29923 3.11735 9.76458 2.688 11.3699ZM6.86 23.4659C8.96935 25.1086 11.3494 25.9299 14 25.9299C15.3814 25.9299 16.7534 25.6686 18.116 25.1459C17.7427 21.9539 17.0147 18.8646 15.932 15.8779C14.2147 16.2512 12.4834 17.1939 10.738 18.7059C8.99268 20.2179 7.7 21.8046 6.86 23.4659ZM11.144 2.96991C12.7867 4.66858 14.308 6.78723 15.708 9.32591C18.2467 8.26191 20.16 6.90858 21.448 5.26591C19.2827 3.47391 16.8 2.57791 14 2.57791C13.048 2.57791 12.096 2.70858 11.144 2.96991ZM16.716 11.3139C16.996 11.9112 17.3134 12.6672 17.668 13.5819C19.0494 13.4512 20.552 13.3859 22.176 13.3859C23.3334 13.3859 24.4814 13.4139 25.62 13.4699C25.4707 10.9312 24.556 8.67258 22.876 6.69391C21.6627 8.50458 19.6094 10.0446 16.716 11.3139ZM18.368 15.5419C19.32 18.3046 19.964 21.1419 20.3 24.0539C21.7747 23.1019 22.9787 21.8792 23.912 20.3859C24.8454 18.8926 25.4054 17.2779 25.592 15.5419C24.2294 15.4486 22.988 15.4019 21.868 15.4019C20.8414 15.4019 19.6747 15.4486 18.368 15.5419Z"/>
</svg>
