<svg width="28" height="28" viewBox="0 0 21 21" fill="#9EA2AA" xmlns="http://www.w3.org/2000/svg">
	<path d="M19.143 11.8299C19.137 11.8629 19.1267 11.8002 19.143 11.8299C19.2397 11.303 19.2905 10.7639 19.2905 10.2249C19.2905 9.02966 19.0566 7.87026 18.5943 6.77861C18.1482 5.72426 17.5101 4.77737 16.6965 3.96438C15.8842 3.15128 14.9366 2.51327 13.8827 2.06729C12.7915 1.60552 11.632 1.37149 10.4369 1.37149C9.87364 1.37149 9.30945 1.42436 8.76036 1.52988C8.75922 1.53011 8.75624 1.53045 8.75624 1.53045C8.00287 1.12991 7.15578 0.916016 6.29816 0.916016C4.89809 0.916016 3.58178 1.46121 2.59187 2.45147C1.60207 3.44139 1.05664 4.7578 1.05664 6.15776C1.05664 7.04892 1.28598 7.92496 1.71605 8.69893C1.62885 9.20052 1.58273 9.71311 1.58273 10.2249C1.58273 11.4203 1.81676 12.5796 2.2791 13.6714C2.72451 14.7262 3.36286 15.6724 4.17573 16.4855C4.9893 17.2985 5.9355 17.9375 6.99053 18.3824C8.08184 18.8451 9.2417 19.0792 10.4368 19.0792C10.9571 19.0792 11.4785 19.0317 11.9875 18.9414C12.7716 19.3851 13.6595 19.6208 14.5661 19.6208C15.9658 19.6208 17.2815 19.0767 18.2716 18.086C19.2617 17.0966 19.8067 15.78 19.8067 14.38C19.8067 13.4859 19.5762 12.607 19.143 11.8299ZM10.4722 15.6472C7.32676 15.6472 5.91947 14.1009 5.91947 12.9418C5.91947 12.3475 6.35836 11.9307 6.96318 11.9307C8.30935 11.9307 7.96076 13.8635 10.4722 13.8635C11.7579 13.8635 12.4678 13.1655 12.4678 12.4511C12.4678 12.0214 12.2558 11.5451 11.4092 11.3365L8.61159 10.638C6.35836 10.073 5.94957 8.85491 5.94957 7.70993C5.94957 5.33264 8.18793 4.44012 10.2899 4.44012C12.2262 4.44012 14.5087 5.51025 14.5087 6.93642C14.5087 7.54754 13.9796 7.90288 13.375 7.90288C12.2262 7.90288 12.4375 6.31283 10.1235 6.31283C8.97528 6.31283 8.33922 6.83285 8.33922 7.57683C8.33922 8.31956 9.24616 8.55679 10.0335 8.73612L12.1043 9.19583C14.3727 9.7012 14.9477 11.0255 14.9477 12.2729C14.948 14.2047 13.465 15.6472 10.4722 15.6472Z"/>
</svg>