<svg width="214" height="24" viewBox="0 0 214 24" fill="none" xmlns="http://www.w3.org/2000/svg">
<path d="M2.16314 0.859375L0.206055 8.04722H6.36198L2.59014 22.5652H12.0553L15.8272 8.04722H21.9119L23.869 0.859375H2.16314Z" fill="#9BA0AA"/>
<path d="M35.8247 7.44273C37.9241 7.44273 38.7781 8.40348 38.7781 9.96915C38.7781 12.4244 37.6039 14.7373 37.2836 15.3422C36.3585 17.0147 35.4689 17.4061 33.2271 17.4061C31.9817 17.4061 30.4516 16.9079 30.4516 14.6661C30.4516 13.5986 31.1633 11.1434 31.9817 9.61332C33.0848 7.54948 34.3302 7.44273 35.8247 7.44273ZM20.7729 16.1607C20.7729 22.9571 25.8258 23.1706 32.5866 23.1706C36.9278 23.1706 42.6567 22.8859 45.0408 19.1141C47.4249 15.449 48.7415 10.3606 48.7415 7.26481C48.7415 0.468387 42.4432 0.254883 36.9278 0.254883C31.3768 0.254883 26.8577 0.78864 24.2245 4.98748C22.054 8.43906 20.7729 13.0649 20.7729 16.1607Z" fill="#9BA0AA"/>
<path d="M53.7588 17.6191L49.2041 0.859375H59.3809L60.5552 10.4313H60.6619L66.213 0.859375H76.9947L61.1957 22.5652H50.0581L53.7588 17.6191Z" fill="#9BA0AA"/>
<path d="M86.958 7.44273C89.0574 7.44273 89.9114 8.40348 89.9114 9.96915C89.9114 12.4244 88.7372 14.7373 88.4169 15.3422C87.4918 17.0147 86.6022 17.4061 84.3604 17.4061C83.115 17.4061 81.5849 16.9079 81.5849 14.6661C81.5849 13.5986 82.2966 11.1434 83.115 9.61332C84.2181 7.54948 85.4635 7.44273 86.958 7.44273ZM71.9062 16.1607C71.9062 22.9571 76.9591 23.1706 83.7199 23.1706C88.0611 23.1706 93.79 22.8859 96.1741 19.1141C98.5582 15.449 99.8748 10.3606 99.8748 7.26481C99.8748 0.468387 93.5765 0.254883 88.0611 0.254883C82.5101 0.254883 77.991 0.78864 75.3578 4.98748C73.1873 8.43906 71.9062 13.0649 71.9062 16.1607Z" fill="#9BA0AA"/>
<path d="M109.34 8.04722H103.646L105.461 0.859375H125.566L123.751 8.04722H118.093L114.606 22.5652H105.853L109.34 8.04722Z" fill="#9BA0AA"/>
<path d="M126.918 0.859375H135.565L130.085 22.5652H121.581L126.918 0.859375Z" fill="#9BA0AA"/>
<path d="M144.852 6.94413H148.588C149.763 6.94413 150.439 7.4423 150.439 8.47421C150.439 9.86197 149.585 11.4632 147.628 11.4632H143.749L144.852 6.94413ZM132.362 22.5652H140.973L142.753 15.0216L146.916 22.5652H156.986L151.15 13.6694H152.68C156.31 13.6694 159.157 11.1786 159.157 5.69872C159.157 2.63855 158.338 0.859375 154.495 0.859375H137.842L132.362 22.5652Z" fill="#9BA0AA"/>
<path d="M162.288 0.859375H183.069L181.396 7.72696H169.369L168.835 10.1466H180.827L179.688 14.8081H167.697L167.198 16.7651H179.226L177.838 22.5652H157.093L162.288 0.859375Z" fill="#9BA0AA"/>
<path d="M181.076 16.694C184.279 17.121 187.481 17.3701 190.72 17.3701C191.645 17.3701 193.637 17.3701 193.637 15.9823C193.637 14.9504 193.139 14.7369 188.086 14.7369C185.489 14.7369 182.642 13.7761 182.642 10.3957C182.642 5.73429 184.884 1.96246 188.3 0.930546C190.186 0.361212 192.926 0.290039 195.025 0.290039C197.836 0.290039 202.391 0.432379 206.519 1.10846L204.739 7.79813C201.999 7.4423 199.295 7.12205 196.52 7.12205C193.175 7.12205 192.356 7.62021 192.356 8.65213C192.356 9.50613 192.926 9.75522 197.338 9.75522C200.541 9.75522 203.387 9.89755 203.387 14.4878C203.387 16.1602 202.64 18.5087 202.071 19.5406C200.327 22.6008 197.516 23.1702 191.929 23.1702C187.41 23.1702 183.567 22.8855 179.831 22.1738L181.076 16.694Z" fill="#9BA0AA"/>
<path d="M211.251 0.610717C211.856 0.610717 212.354 0.824221 212.746 1.21564C213.173 1.64264 213.351 2.10523 213.351 2.71014C213.351 3.27948 213.137 3.77764 212.746 4.20464C212.319 4.63164 211.82 4.80956 211.251 4.80956C210.646 4.80956 210.148 4.59606 209.757 4.20464C209.33 3.77764 209.152 3.27948 209.152 2.71014C209.152 2.14081 209.365 1.64264 209.757 1.21564C210.148 0.824221 210.646 0.610717 211.251 0.610717ZM213.706 2.71014C213.706 2.03406 213.457 1.46472 212.995 0.96655C212.497 0.503966 211.927 0.254883 211.251 0.254883C210.575 0.254883 209.97 0.503966 209.508 0.96655C209.009 1.42913 208.796 2.03406 208.796 2.71014C208.796 3.38623 209.045 3.95556 209.508 4.45373C210.006 4.9519 210.575 5.1654 211.251 5.1654C211.927 5.1654 212.532 4.91631 212.995 4.45373C213.493 3.99114 213.706 3.42181 213.706 2.71014ZM211.892 2.21197C211.892 2.42547 211.785 2.56781 211.607 2.63897C211.5 2.67456 211.358 2.71014 211.144 2.71014H210.717V1.74939H211.144C211.429 1.74939 211.607 1.78497 211.714 1.85613C211.82 1.89172 211.892 1.99847 211.892 2.21197ZM210.219 1.35797V4.06231H210.682V2.99481H211.073C211.322 2.99481 211.5 3.03039 211.607 3.06598C211.785 3.17273 211.856 3.38622 211.856 3.67089V3.88439V3.95556V3.99114V4.02672H212.319L212.283 3.99114C212.283 3.95555 212.247 3.91997 212.247 3.84881C212.247 3.77764 212.247 3.70647 212.247 3.6353V3.42181C212.247 3.27948 212.212 3.13714 212.105 2.99481C211.998 2.85247 211.856 2.74572 211.643 2.74572C211.82 2.71014 211.963 2.67455 212.034 2.60339C212.212 2.49664 212.319 2.31872 212.319 2.06964C212.319 1.7138 212.176 1.50031 211.892 1.39356C211.749 1.32239 211.5 1.28681 211.144 1.28681H210.219V1.35797Z" fill="#9BA0AA"/>
</svg>
