<svg width="184" height="35" viewBox="0 0 184 35" fill="none" xmlns="http://www.w3.org/2000/svg">
<path d="M8.64156 11.8008C8.54171 12.3832 8.35867 12.9823 8.17562 13.6313C7.82616 14.846 7.42678 16.2439 7.42678 17.6583C7.42678 19.0728 7.82616 20.4706 8.17562 21.6854C8.35867 22.3344 8.54171 22.9501 8.64156 23.5159C8.72476 23.9985 8.50843 24.4478 8.07577 24.6641C7.64311 24.8971 7.14389 24.8139 6.79443 24.4644L1.36954 19.0395C0.986799 18.6568 0.787109 18.1409 0.787109 17.625C0.787109 17.1092 0.986799 16.61 1.36954 16.2106L6.79443 10.7857C7.14389 10.4362 7.64311 10.3697 8.07577 10.586C8.52507 10.8855 8.7414 11.3348 8.64156 11.8008Z" fill="#9BA0AA"/>
<path d="M11.7977 26.7085C12.3801 26.8084 12.9792 26.9914 13.6282 27.1745C14.843 27.5239 16.2408 27.9233 17.6553 27.9233C19.0697 27.9233 20.4676 27.5239 21.6823 27.1745C22.3313 26.9914 22.947 26.8084 23.5128 26.7085C23.9954 26.6253 24.4447 26.8417 24.661 27.2743C24.894 27.707 24.8108 28.2062 24.4614 28.5557L19.0365 33.9806C18.6537 34.3633 18.1379 34.563 17.622 34.563C17.1061 34.563 16.6069 34.3633 16.2075 33.9806L10.8326 28.539C10.4831 28.1896 10.4165 27.6904 10.6329 27.2577C10.8658 26.8417 11.3151 26.6087 11.7977 26.7085Z" fill="#9BA0AA"/>
<path d="M23.5035 8.70109C22.9211 8.60125 22.322 8.4182 21.673 8.23515C20.4582 7.88569 19.0604 7.48632 17.6459 7.48632C16.2315 7.48632 14.8336 7.88569 13.6188 8.23515C12.9699 8.4182 12.3541 8.60125 11.7884 8.70109C11.3058 8.7843 10.8565 8.56797 10.6401 8.13531C10.4072 7.70265 10.4904 7.20342 10.8398 6.85397L16.2647 1.42907C16.6142 1.06297 17.1301 0.863281 17.6293 0.863281C18.1451 0.863281 18.6444 1.06297 19.0437 1.44571L24.4686 6.87061C24.8181 7.22006 24.8847 7.71929 24.6683 8.15195C24.4354 8.56797 23.9694 8.7843 23.5035 8.70109Z" fill="#9BA0AA"/>
<path d="M26.6572 23.5797C26.7571 22.9972 26.9401 22.3982 27.1232 21.7492C27.4726 20.5344 27.872 19.1366 27.872 17.7221C27.872 16.3076 27.4726 14.9098 27.1232 13.695C26.9401 13.046 26.7571 12.4303 26.6572 11.8645C26.574 11.382 26.7903 10.9327 27.223 10.7163C27.6557 10.4833 28.1549 10.5666 28.5043 10.916L33.9292 16.3409C34.312 16.7236 34.5117 17.2395 34.5117 17.7554C34.5117 18.2712 34.312 18.7705 33.9292 19.1698L28.5043 24.5947C28.1549 24.9442 27.6557 25.0108 27.223 24.7944C26.7903 24.5115 26.574 24.0622 26.6572 23.5797Z" fill="#9BA0AA"/>
<path d="M117.118 9.8418L111.41 19.8429L111.393 19.8762V19.9095V25.5673H107.3V19.9095V19.8762L107.283 19.8429L101.575 9.8418H105.852L109.247 15.7826L109.346 15.9656L109.446 15.7826L112.841 9.8418H117.118Z" fill="#9BA0AA"/>
<path d="M183.073 9.8418L176.949 16.781L183.406 25.5673H178.713L174.304 19.6931L172.573 21.6235V25.5507H168.546V9.8418H172.573V16.6645L178.647 9.8418H183.073Z" fill="#9BA0AA"/>
<path d="M158.848 9.8418V13.2864H150.345V15.9656H158.848V19.4102H150.345V22.0894H158.848V25.5507H146.284V9.8418H158.848Z" fill="#9BA0AA"/>
<path d="M137.699 9.8418H124.054V13.2864H128.73V25.5507H133.04V13.2864H137.699V9.8418Z" fill="#9BA0AA"/>
<path d="M71.3316 9.8418V13.5361H64.9416C62.6451 13.5361 60.7647 15.3998 60.7647 17.7129C60.7647 20.0093 62.6285 21.8897 64.9416 21.8897H71.3316V25.584H64.3259C60.0492 25.5673 56.5879 22.0894 56.5879 17.8294V17.5798C56.5879 13.3197 60.0492 9.8418 64.3259 9.8418H71.3316Z" fill="#9BA0AA"/>
<path d="M89.2991 9.85843C92.5275 9.85843 95.1567 12.4877 95.1567 15.716V16.0155C95.1567 17.8959 94.2415 19.6765 92.7105 20.7748L92.6606 20.8081V20.9079L95.7058 25.5507H91.3792L88.983 21.8731H85.3719V25.5507H81.2949V9.8418H89.2991V9.85843ZM85.3886 18.4617H88.9164C90.2477 18.4617 91.3293 17.3801 91.3293 16.0488V15.7493C91.3293 14.418 90.2477 13.3364 88.9164 13.3364H85.3886V18.4617Z" fill="#9BA0AA"/>
</svg>
