<svg width="62" height="62" viewBox="0 0 62 62" fill="none" xmlns="http://www.w3.org/2000/svg">
<g clip-path="url(#clip0)">
<path d="M0.594238 45.6134V45.6161C0.630542 46.9626 0.64174 48.317 0.868874 49.6553C1.10956 51.0711 1.45362 52.4517 2.11004 53.7367C2.99748 55.476 4.21625 56.9448 5.75468 58.1446C6.85923 59.0061 8.06586 59.6899 9.40155 60.1213C11.3492 60.7496 13.3585 60.9904 15.3972 61.0022C16.6691 61.0102 17.9402 61.042 19.2126 61.0367C28.453 60.9978 37.6936 61.1034 46.9342 60.9797C48.1604 60.963 49.3666 60.8135 50.57 60.5934C52.8766 60.1712 54.9151 59.187 56.6593 57.631C58.6919 55.818 60.0633 53.5993 60.6824 50.9214C61.0875 49.171 61.1889 47.3952 61.2062 45.6132V45.2577C61.2062 45.1198 61.1537 14.978 61.1489 14.5796C61.1353 13.4852 61.0547 12.399 60.8495 11.3221C60.6 10.0099 60.2474 8.73126 59.6191 7.54408C58.9556 6.28983 58.1245 5.16206 57.0966 4.17655C55.5219 2.66665 53.7049 1.59887 51.5895 1.03404C49.6788 0.52402 47.7296 0.411101 45.7661 0.412869C45.7629 0.412398 45.7555 0.392478 45.755 0.382812H16.0359C16.0354 0.392949 16.035 0.403086 16.0343 0.412869C14.92 0.433261 13.804 0.424892 12.6953 0.562327C11.4808 0.713318 10.2779 0.940688 9.12833 1.36525C7.31762 2.03499 5.74442 3.07813 4.40059 4.47076C2.87807 6.04855 1.80487 7.87329 1.23545 9.99812C0.727431 11.8939 0.61687 13.8275 0.614159 15.7747" fill="white"/>
<path d="M31.1753 51.5621C31.0495 51.5621 30.9293 51.5575 30.838 51.5532C30.7655 51.5594 30.6907 51.5621 30.6157 51.5621C27.9711 51.5621 26.2028 50.3119 24.6423 49.2079C23.5239 48.4179 22.469 47.672 21.2333 47.4664C20.6264 47.3658 20.0227 47.3147 19.4393 47.3147C18.3883 47.3147 17.5577 47.4777 16.9512 47.5963C16.578 47.669 16.2563 47.7316 16.0076 47.7316C15.7471 47.7316 15.4306 47.6739 15.2987 47.2235C15.1941 46.8682 15.1192 46.5241 15.0468 46.1926C14.8658 45.3643 14.7344 44.8588 14.4243 44.8108C11.1074 44.299 9.14756 43.5452 8.75718 42.6321C8.71628 42.5362 8.69341 42.4397 8.68834 42.3442C8.67314 42.072 8.86526 41.8333 9.13353 41.7889C11.7677 41.3551 14.1099 39.9629 16.0954 37.6494C17.6334 35.8584 18.3888 34.1472 18.4698 33.9582C18.4734 33.9498 18.4775 33.9408 18.4818 33.9327C18.8645 33.1561 18.9406 32.4851 18.7088 31.9388C18.2814 30.9309 16.8659 30.4818 15.9294 30.1847C15.6965 30.111 15.4762 30.0412 15.3007 29.9716C14.4705 29.6436 13.1053 28.9508 13.2871 27.9945C13.4196 27.2972 14.3419 26.8116 15.0873 26.8116C15.2943 26.8116 15.4777 26.8479 15.6321 26.9204C16.4744 27.315 17.2322 27.515 17.8839 27.515C18.6944 27.515 19.0858 27.2065 19.1805 27.1188C19.1571 26.6864 19.1286 26.2293 19.101 25.797C19.101 25.7965 19.1004 25.7913 19.1004 25.7913C18.9102 22.765 18.6729 18.9989 19.6363 16.8391C22.5196 10.3744 28.6343 9.87165 30.4391 9.87165C30.4872 9.87165 31.2258 9.86434 31.2258 9.86434C31.2591 9.86375 31.2953 9.86328 31.3328 9.86328C33.1426 9.86328 39.27 10.3666 42.1551 16.8353C43.1185 18.9964 42.8809 22.7657 42.6901 25.7952L42.6812 25.9402C42.655 26.3515 42.6308 26.7409 42.6104 27.1183C42.6995 27.2003 43.0577 27.4832 43.7865 27.5119C44.4078 27.488 45.1218 27.289 45.9079 26.9209C46.151 26.8068 46.4201 26.7831 46.6028 26.7831C46.879 26.7831 47.16 26.8368 47.3942 26.9345L47.4066 26.9394C48.0738 27.1762 48.5107 27.6494 48.5202 28.1466C48.5285 28.61 48.1841 29.3028 46.4901 29.9718C46.3166 30.0405 46.0952 30.1108 45.8614 30.1849C44.9241 30.4824 43.5098 30.9312 43.0824 31.9386C42.8502 32.4849 42.9266 33.1557 43.3094 33.932C43.3136 33.9404 43.3173 33.9491 43.3214 33.958C43.4393 34.2343 46.2923 40.7396 52.6577 41.7883C52.9259 41.833 53.1184 42.0719 53.103 42.3436C53.0974 42.4412 53.0738 42.5388 53.0326 42.6341C52.6449 43.5421 50.6852 44.2949 47.3673 44.8074C47.0559 44.8555 46.9247 45.3588 46.7453 46.1827C46.671 46.523 46.5955 46.8566 46.4923 47.2071C46.3958 47.5368 46.181 47.6979 45.8362 47.6979H45.7842C45.5596 47.6979 45.2415 47.6571 44.8403 47.5786C44.139 47.4421 43.3524 47.3151 42.3522 47.3151C41.769 47.3151 41.1654 47.3662 40.5577 47.4668C39.3233 47.6723 38.2686 48.417 37.1521 49.2063C35.5886 50.3118 33.8197 51.5621 31.1753 51.5621Z" fill="white"/>
<path d="M31.3327 10.3964C33.0365 10.3964 38.9036 10.854 41.6684 17.0527C42.5788 19.0938 42.3455 22.7913 42.1583 25.7615C42.1291 26.2328 42.1001 26.6897 42.0765 27.1259L42.0666 27.3134L42.1918 27.4531C42.2423 27.5092 42.7156 28.0038 43.7682 28.0445L43.7851 28.0454L43.8028 28.0451C44.4987 28.0185 45.2825 27.8024 46.1338 27.4036C46.2592 27.3449 46.4261 27.3163 46.6027 27.3163C46.8039 27.3163 47.0177 27.3541 47.194 27.4284L47.2207 27.439C47.667 27.5954 47.9826 27.8903 47.9874 28.1571C47.99 28.308 47.8772 28.8515 46.2949 29.4766C46.1403 29.5376 45.9367 29.6026 45.7007 29.677C44.671 30.0039 43.1154 30.4973 42.5918 31.7311C42.297 32.426 42.3778 33.2462 42.8316 34.1684C43.0183 34.6041 45.9575 41.2246 52.5712 42.3144C52.5699 42.3458 52.5619 42.3801 52.5442 42.4205C52.4321 42.6845 51.7196 43.5967 47.2858 44.2808C46.5921 44.3872 46.4221 45.1649 46.225 46.0689C46.1538 46.3926 46.0815 46.7193 45.982 47.0568C45.9516 47.1587 45.9459 47.1645 45.8366 47.1645C45.8216 47.1645 45.8039 47.1645 45.7845 47.1645C45.5879 47.1645 45.2895 47.1237 44.9435 47.0558C44.3135 46.9331 43.4528 46.7826 42.3525 46.7826C41.7384 46.7826 41.1058 46.836 40.4711 46.942C39.1143 47.1676 38.0109 47.948 36.8424 48.774C35.2731 49.8829 33.6511 51.0304 31.1763 51.0304C31.0682 51.0304 30.9627 51.0267 30.857 51.0214L30.8292 51.0203L30.8012 51.0224C30.7405 51.0277 30.6793 51.0304 30.6169 51.0304C28.1424 51.0304 26.5197 49.8833 24.9511 48.774C23.7823 47.948 22.6784 47.1676 21.3218 46.942C20.6877 46.8364 20.0545 46.7826 19.4407 46.7826C18.3407 46.7826 17.4789 46.9509 16.8502 47.0739C16.5043 47.1415 16.2048 47.1995 16.0087 47.1995C15.8482 47.1995 15.8451 47.1901 15.8112 47.0741C15.7117 46.7364 15.639 46.4019 15.5681 46.0787C15.3706 45.1737 15.2005 44.3918 14.5071 44.2853C10.0737 43.6006 9.36103 42.6869 9.24858 42.4236C9.23102 42.3821 9.22312 42.3467 9.22136 42.3154C15.835 41.2265 18.7736 34.6058 18.9609 34.1684C19.4155 33.2469 19.4961 32.4268 19.2004 31.7311C18.6768 30.498 17.1214 30.0039 16.0924 29.6775C15.8559 29.6027 15.6522 29.5376 15.4974 29.4766C14.1613 28.9486 13.7502 28.4168 13.8113 28.0946C13.8821 27.7229 14.5264 27.345 15.0887 27.345C15.215 27.345 15.3258 27.3654 15.4077 27.4037C16.3209 27.8317 17.1544 28.0487 17.8856 28.0487C19.0349 28.0487 19.5465 27.5139 19.6014 27.4529L19.726 27.3136L19.716 27.127C19.6927 26.691 19.6641 26.2342 19.6339 25.7638C19.4473 22.7929 19.214 19.0979 20.124 17.0567C22.8786 10.8808 28.7171 10.4047 30.4405 10.4047C30.483 10.4047 31.2323 10.3971 31.2323 10.3971C31.2629 10.3968 31.297 10.3964 31.3327 10.3964ZM31.3327 9.33105H31.3307C31.2914 9.33105 31.2546 9.33105 31.2194 9.33153C30.9394 9.33435 30.479 9.33883 30.4376 9.33931C29.4279 9.33931 27.4078 9.48193 25.2378 10.4397C23.9971 10.987 22.8811 11.727 21.9209 12.6392C20.7762 13.726 19.8436 15.0661 19.1496 16.6227C18.1332 18.9018 18.3745 22.7407 18.5683 25.8257L18.569 25.8305C18.5897 26.1609 18.6115 26.5059 18.6315 26.8421C18.4823 26.9106 18.2406 26.9828 17.8843 26.9828C17.311 26.9828 16.6292 26.7995 15.8585 26.4384C15.6317 26.3328 15.3728 26.2794 15.0872 26.2794C14.6284 26.2794 14.1446 26.4144 13.725 26.6611C13.1971 26.9711 12.856 27.4093 12.7633 27.895C12.7023 28.2163 12.7052 28.8514 13.4107 29.4954C13.7987 29.85 14.3687 30.177 15.1044 30.4677C15.2975 30.5438 15.5267 30.6164 15.7693 30.6933C16.6115 30.961 17.8862 31.3654 18.2186 32.1477C18.387 32.5444 18.3145 33.0663 18.0037 33.6971C17.9955 33.7143 17.9874 33.7312 17.98 33.7489C17.9023 33.9303 17.1777 35.5717 15.6912 37.3029C14.8466 38.2873 13.9162 39.11 12.9275 39.7489C11.7208 40.5288 10.415 41.0387 9.04691 41.2641C8.50966 41.3523 8.126 41.8309 8.15593 42.3749C8.16513 42.5317 8.2019 42.688 8.26567 42.8392C8.26614 42.8401 8.26673 42.8411 8.2672 42.8419C8.48444 43.35 8.98809 43.7817 9.80693 44.1624C10.8075 44.6271 12.304 45.0181 14.2544 45.324C14.3529 45.5114 14.4552 45.9824 14.5261 46.3049C14.6002 46.6477 14.6775 47.0001 14.7877 47.3744C14.9067 47.78 15.2151 48.2647 16.0076 48.2647C16.3079 48.2647 16.6533 48.1971 17.0532 48.1195C17.6389 48.0046 18.4398 47.8478 19.4394 47.8478C19.9937 47.8478 20.568 47.8966 21.1462 47.9927C22.2606 48.1782 23.2214 48.8569 24.333 49.6428C25.9601 50.793 27.8018 52.0949 30.6157 52.0949C30.6924 52.0949 30.7694 52.0924 30.8454 52.0871C30.9384 52.0915 31.0537 52.0949 31.1753 52.0949C33.9901 52.0949 35.8313 50.7925 37.4566 49.6433L37.4592 49.641C38.5711 48.8559 39.5307 48.1782 40.6448 47.9927C41.2228 47.8967 41.797 47.8478 42.3515 47.8478C43.3065 47.8478 44.0626 47.9696 44.7377 48.1012C45.1783 48.188 45.5207 48.2297 45.7835 48.2297L45.8092 48.2302H45.8358C46.4154 48.2302 46.8412 47.912 47.0038 47.3554C47.1117 46.9889 47.1888 46.6447 47.2649 46.2962C47.3311 45.994 47.4369 45.5095 47.5355 45.3201C49.4872 45.0136 50.983 44.6235 51.9838 44.1588C52.8007 43.7799 53.3038 43.3487 53.5223 42.8427C53.5878 42.691 53.6262 42.5338 53.6348 42.3737C53.6655 41.8307 53.2813 41.3511 52.7437 41.2629C46.6634 40.2608 43.9242 34.0132 43.8109 33.7478C43.8036 33.7304 43.7954 33.713 43.7868 33.6962C43.4759 33.0651 43.4042 32.5438 43.5727 32.1464C43.9044 31.3648 45.1782 30.9604 46.021 30.6929C46.265 30.616 46.4949 30.5429 46.6865 30.4673C47.5162 30.1396 48.1092 29.7841 48.5004 29.3804C48.9676 28.8991 49.0586 28.438 49.0529 28.1363C49.0387 27.4062 48.4806 26.7574 47.5928 26.4398C47.2929 26.3158 46.951 26.2504 46.6028 26.2504C46.3658 26.2504 46.0147 26.2829 45.6825 26.438C44.9711 26.7709 44.3339 26.9529 43.7869 26.9788C43.496 26.9641 43.292 26.901 43.1598 26.8408C43.1764 26.556 43.1948 26.2635 43.2138 25.9584L43.2217 25.8278C43.4165 22.7408 43.6586 18.899 42.6418 16.6182C41.9448 15.0561 41.0089 13.7126 39.8596 12.6234C38.8957 11.7106 37.7759 10.9707 36.5307 10.4238C34.3638 9.47309 32.3438 9.33105 31.3327 9.33105Z" fill="#9BA0AA"/>
</g>
<defs>
<clipPath id="clip0">
<rect width="60.6121" height="60.6592" fill="white" transform="translate(0.594238 0.382812)"/>
</clipPath>
</defs>
</svg>
