<svg width="24" height="27" viewBox="0 0 24 27" fill="none" xmlns="http://www.w3.org/2000/svg">
<path d="M18.4998 18.476C17.1733 19.5373 15.3161 20.3332 13.459 20.3332C9.21409 20.3332 6.29572 17.1495 6.29572 12.9046C6.29572 8.65971 9.21409 5.74135 13.459 5.74135C15.3161 5.74135 17.1733 6.27196 18.4998 7.59849L19.2957 8.39441L23.5406 4.41482L22.4794 3.6189C20.0916 1.49645 16.908 0.169922 13.459 0.169922C6.03042 0.169922 0.458984 5.74135 0.458984 13.1699C0.458984 20.5985 6.03042 26.1699 13.459 26.1699C16.908 26.1699 20.0916 24.8434 22.4794 22.7209L23.5406 21.925L19.2957 17.6801L18.4998 18.476Z" fill="#17313B"/>
<path d="M13.1941 17.4156C15.5385 17.4156 17.439 15.5151 17.439 13.1707C17.439 10.8263 15.5385 8.92578 13.1941 8.92578C10.8497 8.92578 8.94922 10.8263 8.94922 13.1707C8.94922 15.5151 10.8497 17.4156 13.1941 17.4156Z" fill="#EF4335"/>
</svg>
