<svg width="27" height="27" viewBox="0 0 27 27" fill="none" xmlns="http://www.w3.org/2000/svg">
<g clip-path="url(#clip0_943_1706)">
<path opacity="0.75" d="M15.1256 13.1227L15.8726 10.7397L11.8631 12.404L15.1256 13.1227ZM23.8253 8.62146C20.771 5.53868 13.3667 6.11552 10.4542 6.83421C7.04989 7.70419 6.14209 10.2952 6.23665 14.4939C6.27448 16.9052 7.32413 19.0424 9.35723 19.7705C13.4991 21.2079 17.0546 21.0093 20.7899 17.4348C18.8797 15.3733 17.291 14.6546 14.6811 14.8438C12.1468 14.9667 10.7095 14.5695 8.91278 12.6026C11.1066 10.4938 12.4494 9.47253 15.0972 9.1983C18.057 8.8957 20.6953 10.1439 21.8395 11.3071C22.9081 12.404 23.4471 14.9099 23.1918 17.9454C22.9932 20.4041 22.2083 21.8509 20.4022 22.371C18.0759 23.0897 14.7 23.4396 11.5795 23.3167C7.90096 23.1654 5.97188 22.4183 5.43287 21.8509C4.29812 20.5838 3.46596 17.8982 3.27684 14.8154C3.08771 11.7326 3.56998 8.82004 4.52507 7.23137C5.47069 5.6427 8.96952 4.5174 14.1232 4.19588C18.4258 3.95001 22.4164 4.27153 22.4636 4.27153L22.1989 0.838867C22.1989 0.838867 12.9979 1.90744 11.5889 2.03037C8.17519 2.36134 3.57944 3.09894 2.03806 5.68999C-0.713715 10.3142 -0.0139502 20.1582 3.31466 23.8462C6.28393 27.1559 16.6102 26.6075 21.2343 25.2174C23.3147 24.5933 25.6693 22.8817 26.0759 18.2008C26.3407 15.118 25.9152 10.7586 23.8253 8.62146ZM14.5771 16.8769L17.8395 17.5956L13.83 19.2599L14.5771 16.8769Z" fill="#C5C9D2"/>
<path d="M14.9366 12.8482L15.6836 10.4652L11.6742 12.1295L14.9366 12.8482ZM23.6364 8.34697C20.582 5.26423 13.1777 5.8316 10.2652 6.55974C6.86093 7.42971 5.95312 10.0207 6.04769 14.2193C6.08551 16.6307 7.13516 18.7678 9.16826 19.4959C13.3101 20.9333 16.8657 20.7347 20.6009 17.1602C18.6907 15.0988 17.1021 14.3801 14.4921 14.5692C11.9579 14.6921 10.5205 14.295 8.72381 12.3281C10.9177 10.2193 12.2605 9.19804 14.9082 8.92381C17.868 8.62121 20.5063 9.86943 21.6506 11.0326C22.7191 12.1295 23.2581 14.6354 23.0028 17.6709C22.8042 20.1295 22.0193 21.5763 20.2132 22.0964C17.887 22.8151 14.5016 23.165 11.3905 23.042C7.71199 22.8907 5.78291 22.1437 5.2439 21.5763C4.10915 20.3092 3.277 17.6236 3.08787 14.5408C2.89875 11.4581 3.38102 8.54555 4.3361 6.9569C5.28173 5.36824 8.78055 4.24295 13.9342 3.92143C18.2368 3.67557 22.2274 3.99708 22.2747 3.99708L22.0099 0.564453C22.0099 0.564453 12.8089 1.63301 11.3999 1.75594C7.98623 2.07746 3.38102 2.8245 1.8491 5.41553C-0.90268 10.0396 -0.202915 19.8931 3.1257 23.5716C6.09497 26.8813 16.4212 26.3328 21.0454 24.9427C23.1257 24.3186 25.4803 22.607 25.887 17.9262C26.1517 14.8434 25.7262 10.4841 23.6364 8.34697ZM14.3881 16.6023L17.6505 17.321L13.6411 18.9853L14.3881 16.6023Z" fill="#9BA0AA"/>
</g>
<defs>
<clipPath id="clip0_943_1706">
<rect width="26" height="25.74" fill="white" transform="translate(0.144531 0.564453)"/>
</clipPath>
</defs>
</svg>
