<svg width="27" height="27" viewBox="0 0 27 27" fill="none" xmlns="http://www.w3.org/2000/svg">
<g clip-path="url(#clip0)">
<path d="M1.22754 1.75488H25.0609V24.9382H1.22754V1.75488Z" fill="#9BA0AA"/>
<path d="M0.144531 0.671875V26.0219H26.1445V0.671875H0.144531ZM1.22786 1.75521H25.0612V24.9385H1.22786V1.75521Z" fill="#C5C9D2"/>
<path d="M19.027 11.3202C18.8645 11.2444 18.6587 11.2119 18.3987 11.2119C17.0337 11.2119 16.1237 12.2627 16.1237 14.0069C16.1237 16.0002 17.0554 16.8018 18.2687 16.8018C18.5287 16.8018 18.8103 16.7693 19.0162 16.6827V11.3202H19.027ZM14.1737 14.0935C14.1737 11.5694 15.7987 9.59773 18.4637 9.59773C18.6912 9.59773 18.8103 9.59773 19.027 9.6194V6.80276C19.027 6.73776 19.0812 6.69443 19.1353 6.69443H20.8795C20.9662 6.69443 20.9878 6.72693 20.9878 6.78109V16.6827C20.9878 16.9752 20.9878 17.3435 21.042 17.7443C21.042 17.8201 21.042 17.831 20.977 17.8635C20.067 18.2968 19.1137 18.4918 18.2037 18.4918C15.8529 18.4918 14.1737 17.0402 14.1737 14.0935ZM10.4796 12.3385L13.5129 18.221C13.5671 18.3076 13.5346 18.3943 13.4479 18.3943H11.5629C11.4437 18.3943 11.3896 18.3618 11.3354 18.2535C10.6421 16.8235 9.93792 15.3393 9.21209 13.801H9.19043C8.54043 15.2527 7.82544 16.8343 7.13211 18.2643C7.07795 18.351 7.02378 18.3835 6.93712 18.3835H5.1388C5.03047 18.3835 5.01963 18.2968 5.0738 18.2318L8.04211 12.5227L5.1713 6.84609C5.1063 6.75943 5.1713 6.68359 5.24713 6.68359H7.11045C7.21878 6.68359 7.27295 6.70526 7.30545 6.80276C7.98794 8.24358 8.68127 9.66273 9.33126 11.1144H9.35293C9.98125 9.6844 10.6746 8.24358 11.3354 6.82443C11.3896 6.73776 11.4221 6.68359 11.5304 6.68359H13.2746C13.3612 6.68359 13.3937 6.74859 13.3396 6.84609L10.4796 12.3385Z" fill="#C5C9D2"/>
</g>
<defs>
<clipPath id="clip0">
<rect width="26" height="25.3552" fill="white" transform="translate(0.144531 0.668945)"/>
</clipPath>
</defs>
</svg>
