<svg width="24" height="24" viewBox="0 0 24 24" fill="none" xmlns="http://www.w3.org/2000/svg">
<path d="M12.1911 13.8845H15.0944C15.9201 13.8845 16.4425 13.4305 16.4425 12.701C16.4425 12.0131 15.9201 11.5176 15.0944 11.5176H12.1911C12.095 11.5176 12.0127 11.5999 12.0127 11.6831V13.719C12.0256 13.8151 12.0941 13.8845 12.1911 13.8845ZM12.1911 18.5757H15.1906C16.1124 18.5757 16.6626 18.1079 16.6626 17.2823C16.6626 16.5667 16.1402 15.9888 15.1906 15.9888H12.1911C12.095 15.9888 12.0127 16.0711 12.0127 16.1543V18.3973C12.0256 18.5073 12.0941 18.5757 12.1911 18.5757Z" fill="#9BA0AA"/>
<path d="M22.813 0.841592L14.2273 9.39958H15.6308C17.8184 9.39958 19.1119 10.7754 19.1119 12.275C19.1119 13.4585 18.314 14.3249 17.4606 14.7104C17.3228 14.7659 17.3228 14.9582 17.4745 15.0127C18.4647 15.3983 19.1665 16.4301 19.1665 17.6404C19.1665 19.3463 18.0246 20.7082 15.8093 20.7082H9.7283C9.63214 20.7082 9.54985 20.6259 9.54985 20.5427V14.0623L0.124646 23.4468C0.000752188 23.5707 0.0830401 23.7908 0.262409 23.7908H22.923C23.0053 23.7908 23.0747 23.7224 23.0747 23.6392V0.965487C23.1154 0.813854 22.923 0.731566 22.813 0.841592Z" fill="#9BA0AA"/>
</svg>
