<svg width="24" height="27" viewBox="0 0 24 27" fill="none" xmlns="http://www.w3.org/2000/svg">
<g clip-path="url(#clip0_943_1670)">
<path d="M22.955 20.2216C23.1363 19.9076 23.249 19.5538 23.249 19.236V8.20716C23.249 7.88944 23.1365 7.5357 22.9551 7.22168L11.6968 13.7216L22.955 20.2216Z" fill="#C5C9D2"/>
<path d="M12.6972 26.4833L22.2485 20.9689C22.5236 20.8101 22.7737 20.5357 22.955 20.2216L11.6967 13.7217L0.438477 20.2217C0.619763 20.5357 0.86991 20.8101 1.14497 20.9689L10.6963 26.4833C11.2465 26.801 12.147 26.801 12.6972 26.4833Z" fill="#9BA0AA"/>
<path d="M22.9551 7.22164C22.7737 6.90754 22.5236 6.63323 22.2485 6.47437L12.6972 0.959972C12.147 0.642249 11.2465 0.642249 10.6963 0.959972L1.14497 6.47437C0.594689 6.79202 0.144531 7.57183 0.144531 8.2072V19.2361C0.144531 19.5538 0.257109 19.9076 0.438471 20.2216L11.6967 13.7217L22.9551 7.22164Z" fill="#9BA0AA"/>
<path d="M11.6966 21.4234C7.44998 21.4234 3.99512 17.9686 3.99512 13.722C3.99512 9.47537 7.44998 6.02051 11.6966 6.02051C14.4368 6.02051 16.9924 7.49511 18.366 9.86882L15.033 11.7975C14.3455 10.6094 13.067 9.87124 11.6966 9.87124C9.57324 9.87124 7.84585 11.5986 7.84585 13.722C7.84585 15.8452 9.57324 17.5727 11.6966 17.5727C13.0671 17.5727 14.3457 16.8346 15.0332 15.6462L18.3662 17.5748C16.9926 19.9487 14.4369 21.4234 11.6966 21.4234Z" fill="white"/>
<path d="M19.3982 13.2942H18.5424V12.4385H17.6868V13.2942H16.8311V14.1499H17.6868V15.0056H18.5424V14.1499H19.3982V13.2942Z" fill="white"/>
<path d="M22.6072 13.2942H21.7514V12.4385H20.8958V13.2942H20.04V14.1499H20.8958V15.0056H21.7514V14.1499H22.6072V13.2942Z" fill="white"/>
</g>
<defs>
<clipPath id="clip0_943_1670">
<rect width="23.1044" height="26" fill="white" transform="translate(0.144531 0.72168)"/>
</clipPath>
</defs>
</svg>
