<svg width="27" height="27" viewBox="0 0 27 27" fill="none" xmlns="http://www.w3.org/2000/svg">
<path d="M26.5508 20.0642C26.5508 23.6542 23.6405 26.5645 20.0505 26.5645H7.05103C3.46104 26.5645 0.550781 23.6542 0.550781 20.0642V7.06471C0.550781 3.47472 3.46104 0.564453 7.05103 0.564453H20.0505C23.6405 0.564453 26.5508 3.47472 26.5508 7.06471V20.0642Z" fill="#C5C9D2"/>
<path d="M24.1973 10.8381C23.6934 9.32356 22.8177 7.94081 21.6684 6.83354C20.5581 5.76371 19.2 4.9583 17.7266 4.50271C17.8987 4.96135 17.9856 5.44991 17.9849 5.93965C16.7829 4.36355 14.9416 3.34016 12.9666 3.16251C11.7616 3.05412 10.5349 3.2534 9.42915 3.74548C10.3275 4.02428 11.1134 4.62011 11.6285 5.40666C9.63282 4.69112 7.36449 4.91588 5.54998 6.01178C4.80888 6.45938 4.15121 7.0425 3.61741 7.7241C4.86389 7.45697 6.1906 7.79857 7.15071 8.63727C6.34904 9.40524 5.25047 9.81528 4.14166 9.76327C4.30877 10.0349 4.50674 10.2855 4.73094 10.5099C4.71959 10.5281 4.70839 10.5464 4.6972 10.5646C3.94344 10.9048 3.30205 11.4767 2.87675 12.1858C2.40275 12.9761 2.21231 13.9189 2.3371 14.8318C2.4083 15.3526 2.58151 15.8581 2.8449 16.3129C2.72792 15.3012 3.58576 14.4084 4.60198 14.487C5.59951 14.5641 6.30945 15.5522 6.06545 16.5234C5.89252 17.2117 5.27251 17.7226 4.56352 17.7606C5.50573 19.4361 7.12216 20.6868 8.98405 21.1688C9.64292 21.3394 10.3256 21.4135 11.0057 21.3916C10.4955 21.7796 9.89093 22.0498 9.23243 22.1619C10.8498 23.2622 12.7799 23.8597 14.7357 23.8715C16.3122 23.8811 17.8825 23.5135 19.2875 22.7976C20.6403 22.1083 21.8278 21.1058 22.7365 19.8897C23.6588 18.6552 24.2859 17.2084 24.5522 15.6904C24.8355 14.0759 24.7148 12.3938 24.1973 10.8381ZM20.3699 18.5867C19.2989 19.7104 17.8154 20.3939 16.2647 20.4731C14.6988 20.5531 13.1397 20.0202 11.9537 18.994C10.7851 17.9828 10.03 16.5406 9.87267 15.0027C9.71254 13.4373 10.1685 11.8457 11.14 10.6073C12.0903 9.3959 13.4889 8.57201 15.0114 8.33767C16.5707 8.09767 18.1904 8.47576 19.4776 9.38875C20.7296 10.2768 21.6196 11.63 21.9297 13.1342C22.0137 13.5417 22.0556 13.9577 22.0556 14.3737C22.0556 15.9343 21.4465 17.457 20.3699 18.5867Z" fill="#9BA0AA"/>
</svg>
