<svg width="24" height="14" viewBox="0 0 24 14" fill="none" xmlns="http://www.w3.org/2000/svg">
<path d="M23.2236 13.6129C22.387 13.8256 21.8695 13.6222 21.4052 12.9251L18.1033 8.35668L17.626 7.72418L13.7699 12.9401C13.3293 13.5676 12.8672 13.8407 12.0449 13.6186L16.9827 6.99033L12.3856 1.00315C13.1762 0.849335 13.7225 0.927678 14.2076 1.63565L17.6325 6.2608L21.0825 1.6608C21.5245 1.03333 21.9996 0.79471 22.7931 1.02615L21.0106 3.3894L18.5956 6.53393C18.3081 6.8933 18.3476 7.13911 18.6121 7.48627L23.2236 13.6129ZM0.229383 6.87965L0.63332 4.89302C1.73301 0.96146 6.23957 -0.672259 9.34745 1.75712C11.1637 3.18599 11.6151 5.20712 11.5253 7.47118H1.28738C1.13357 11.5465 4.06679 14.0061 7.80645 12.7511C9.11816 12.3105 9.89082 11.2834 10.2775 9.9983C10.4737 9.3543 10.7986 9.25368 11.4038 9.43768C11.0947 11.0448 10.3975 12.3874 8.9241 13.2276C6.72257 14.4855 3.5802 14.0786 1.92707 12.3306C0.942383 11.3165 0.53557 10.0314 0.353008 8.65711C0.324258 8.42999 0.266758 8.21365 0.223633 7.99586C0.227466 7.62403 0.229383 7.2522 0.229383 6.88037V6.87965ZM1.30607 6.60652H10.5578C10.4974 3.65965 8.66248 1.56665 6.15476 1.54868C3.40195 1.52712 1.42538 3.57052 1.30607 6.60652Z" fill="#9BA0AA"/>
</svg>
