<svg width="18" height="27" viewBox="0 0 18 27" fill="none" xmlns="http://www.w3.org/2000/svg">
<g clip-path="url(#clip0)">
<path d="M4.4793 26.2966C6.87128 26.2966 8.8126 24.3553 8.8126 21.9632V17.6299H4.4793C2.08732 17.6299 0.145996 19.5712 0.145996 21.9632C0.145996 24.3553 2.08732 26.2966 4.4793 26.2966Z" fill="#9BA0AA"/>
<path d="M0.145996 13.2972C0.145996 10.9052 2.08732 8.96387 4.4793 8.96387H8.8126V17.6305H4.4793C2.08732 17.6305 0.145996 15.6892 0.145996 13.2972Z" fill="#9BA0AA"/>
<path d="M0.145996 4.63021C0.145996 2.23821 2.08732 0.296875 4.4793 0.296875H8.8126V8.96354H4.4793C2.08732 8.96354 0.145996 7.02221 0.145996 4.63021Z" fill="#9BA0AA"/>
<path d="M8.81299 0.296875H13.1464C15.5384 0.296875 17.4797 2.23821 17.4797 4.63021C17.4797 7.02221 15.5384 8.96354 13.1464 8.96354H8.81299V0.296875Z" fill="#C5C9D2"/>
<path d="M17.4797 13.2972C17.4797 15.6892 15.5384 17.6305 13.1464 17.6305C10.7543 17.6305 8.81299 15.6892 8.81299 13.2972C8.81299 10.9052 10.7543 8.96387 13.1464 8.96387C15.5384 8.96387 17.4797 10.9052 17.4797 13.2972Z" fill="#C5C9D2"/>
</g>
<defs>
<clipPath id="clip0">
<rect width="17.3368" height="26" fill="white" transform="translate(0.144531 0.296875)"/>
</clipPath>
</defs>
</svg>
