<svg width="27" height="27" viewBox="0 0 27 27" fill="none" xmlns="http://www.w3.org/2000/svg">
<g clip-path="url(#clip0)">
<path d="M23.7876 0.668945H2.50149C1.19977 0.668945 0.144531 1.72418 0.144531 3.02591V24.312C0.144531 25.6137 1.19977 26.6689 2.50149 26.6689H23.7876C25.0893 26.6689 26.1445 25.6137 26.1445 24.312V3.02591C26.1445 1.72418 25.0893 0.668945 23.7876 0.668945Z" fill="#9BA0AA"/>
<path d="M8.83395 8.8496C9.69824 8.8496 10.4223 8.17218 10.4223 7.28431C10.4223 6.39705 9.69824 5.71973 8.83395 5.71973C7.96965 5.71973 7.24581 6.39705 7.24581 7.28431C7.24581 8.17207 7.96965 8.8496 8.83395 8.8496ZM5.54068 17.2306C5.44734 17.6277 5.40052 18.0565 5.40052 18.4063C5.40052 19.7846 6.14792 20.6996 7.73626 20.6996C9.05352 20.6996 10.1215 19.9174 10.8904 18.6542L10.4209 20.5385H13.0366L14.5316 14.5423C14.9054 13.0242 15.6294 12.2361 16.7273 12.2361C17.5915 12.2361 18.1286 12.7736 18.1286 13.6609C18.1286 13.9179 18.1053 14.1979 18.0118 14.5017L17.241 17.2578C17.1242 17.6549 17.0777 18.0523 17.0777 18.4257C17.0777 19.7341 17.8482 20.6912 19.4599 20.6912C20.838 20.6912 21.9357 19.804 22.5431 17.6784L21.5154 17.2817C21.0015 18.7057 20.5577 18.9632 20.2073 18.9632C19.8569 18.9632 19.6701 18.7298 19.6701 18.2629C19.6701 18.0527 19.717 17.8194 19.7869 17.5384L20.5345 14.8533C20.7212 14.2228 20.7914 13.6637 20.7914 13.15C20.7914 11.1413 19.5767 10.0929 18.1053 10.0929C16.7273 10.0929 15.3257 11.336 14.6251 12.6442L15.1388 10.2961H11.145L10.5844 12.3643H12.453L11.3023 16.9712C10.3987 18.9799 8.73888 19.0125 8.53058 18.9659C8.18852 18.8887 7.96975 18.7588 7.96975 18.3144C7.96975 18.0579 8.01647 17.6896 8.13327 17.2454L9.88522 10.2961H5.44734L4.88672 12.3643H6.73181L5.54078 17.2306" fill="white"/>
</g>
<defs>
<clipPath id="clip0">
<rect width="26" height="26" fill="white" transform="translate(0.144531 0.668945)"/>
</clipPath>
</defs>
</svg>
