<svg width="20" height="27" viewBox="0 0 20 27" fill="none" xmlns="http://www.w3.org/2000/svg">
<path d="M6.32014 20.8291C6.32014 20.8291 5.32657 21.4069 7.02724 21.6024C9.08754 21.8375 10.1405 21.8038 12.411 21.374C12.411 21.374 13.0079 21.7483 13.8416 22.0725C8.7518 24.2539 2.32238 21.9462 6.32014 20.8291Z" fill="#9BA0AA"/>
<path d="M5.69818 17.9824C5.69818 17.9824 4.58379 18.8073 6.28572 18.9834C8.4866 19.2104 10.2247 19.229 13.2322 18.6498C13.2322 18.6498 13.6482 19.0716 14.3023 19.3022C8.14847 21.1017 1.29417 19.4441 5.69818 17.9824Z" fill="#9BA0AA"/>
<path d="M10.9413 13.1537C12.1954 14.5976 10.6118 15.897 10.6118 15.897C10.6118 15.897 13.7962 14.2531 12.3338 12.1945C10.9679 10.2748 9.92041 9.32094 15.591 6.03223C15.591 6.03223 6.69008 8.25525 10.9413 13.1537Z" fill="#C5C9D2"/>
<path d="M17.6732 22.9347C17.6732 22.9347 18.4084 23.5406 16.8634 24.0093C13.9255 24.8993 4.63556 25.168 2.05485 24.0447C1.12715 23.6411 2.86685 23.0811 3.41409 22.9636C3.98481 22.8398 4.31096 22.8628 4.31096 22.8628C3.27926 22.1361 -2.3575 24.2899 1.44776 24.9068C11.8253 26.5897 20.365 24.1489 17.6732 22.9347Z" fill="#9BA0AA"/>
<path d="M6.79791 15.0326C6.79791 15.0326 2.07245 16.1549 5.1245 16.5625C6.41318 16.735 8.98211 16.696 11.375 16.4955C13.3306 16.3305 15.2943 15.9798 15.2943 15.9798C15.2943 15.9798 14.6047 16.2751 14.1058 16.6158C9.30721 17.8778 0.0371561 17.2907 2.70588 15.9998C4.96283 14.9088 6.79791 15.0326 6.79791 15.0326Z" fill="#9BA0AA"/>
<path d="M15.2748 19.7707C20.1528 17.2359 17.8974 14.8 16.3232 15.1282C15.9373 15.2085 15.7653 15.2781 15.7653 15.2781C15.7653 15.2781 15.9085 15.0537 16.1821 14.9565C19.2965 13.8616 21.6916 18.1858 15.1768 19.8985C15.1768 19.8985 15.2522 19.8311 15.2748 19.7707Z" fill="#9BA0AA"/>
<path d="M12.3339 0.72168C12.3339 0.72168 15.0354 3.42412 9.7716 7.5797C5.55057 10.9132 8.80908 12.8139 9.76985 14.9854C7.30596 12.7624 5.4978 10.8055 6.71086 8.98414C8.49134 6.31058 13.4239 5.01434 12.3339 0.72168Z" fill="#C5C9D2"/>
<path d="M7.27739 26.6396C11.9597 26.9394 19.1499 26.4733 19.3202 24.2578C19.3202 24.2578 18.9928 25.0977 15.4505 25.7647C11.4541 26.5168 6.52503 26.429 3.60156 25.947C3.60163 25.9469 4.20003 26.4423 7.27739 26.6396Z" fill="#9BA0AA"/>
</svg>
