<svg width="27" height="27" viewBox="0 0 27 27" fill="none" xmlns="http://www.w3.org/2000/svg">
<path fill-rule="evenodd" clip-rule="evenodd" d="M26.08 19.6847L25.9636 19.9863C23.9806 23.8481 20.4664 26.2173 15.4542 26.3219C13.111 26.3702 10.8784 25.7689 9.41998 25.1152C6.27262 23.7011 3.62521 21.0786 2.17948 18.2766C0.105553 14.2599 -0.268471 8.67235 4.04381 4.49902C4.1104 4.49902 3.5207 5.40398 3.58728 5.40398L3.46859 5.79016C0.361175 15.5189 9.93499 23.8562 19.2416 22.9027C21.4782 22.6734 24.3303 21.4485 26.08 19.6847Z" fill="#9BA0AA"/>
<path fill-rule="evenodd" clip-rule="evenodd" d="M20.4483 15.6619C22.7898 15.6778 25.2354 14.5835 26.6837 13.0472C25.4166 16.2634 21.7479 18.3307 16.8282 17.6733C12.7087 17.1221 8.78467 12.9768 8.38054 8.82318C8.08497 5.8003 9.13843 3.99618 10.8745 1.80762C10.2712 2.95227 10.0457 3.83493 9.98954 4.398C9.33007 10.9371 15.2131 15.6274 20.4483 15.6619Z" fill="#9BA0AA"/>
<path fill-rule="evenodd" clip-rule="evenodd" d="M26.4485 7.53978C26.0846 8.37468 23.989 9.95126 23.0634 10.1484C19.3988 10.9292 17.0518 9.19134 15.8224 7.21381C15.6397 6.91853 15.3019 6.112 15.2414 5.90675C14.7646 4.28559 14.9837 1.83359 16.406 0.564453C15.9775 1.77135 15.915 3.17307 16.1405 4.0844C16.2772 4.6353 16.6934 5.59728 17.11 6.20232C17.8679 7.30442 18.3488 7.5722 19.3223 8.15756C19.7609 8.421 20.2313 8.63233 20.4346 8.69023C21.3578 8.96206 23.3069 9.67797 26.4488 7.53978" fill="#9BA0AA"/>
</svg>
