<svg width="23" height="24" viewBox="0 0 23 24" fill="none" xmlns="http://www.w3.org/2000/svg">
<path fill-rule="evenodd" clip-rule="evenodd" d="M22.3748 5.9058C22.3829 5.93595 22.3871 5.96702 22.3871 5.99825V10.8512C22.3872 10.9135 22.3707 10.9747 22.3395 11.0286C22.3083 11.0825 22.2634 11.1272 22.2093 11.1582L18.1361 13.5033V18.1515C18.1361 18.278 18.0689 18.3948 17.9592 18.4585L9.45673 23.3531C9.43727 23.3641 9.41604 23.3712 9.3948 23.3787C9.38684 23.3814 9.37932 23.3862 9.37092 23.3885C9.31148 23.4041 9.24901 23.4041 9.18957 23.3885C9.17984 23.3858 9.171 23.3805 9.16171 23.377C9.14225 23.3699 9.1219 23.3637 9.10332 23.3531L0.602612 18.4585C0.54861 18.4275 0.503739 18.3828 0.472523 18.3289C0.441306 18.275 0.424847 18.2138 0.424805 18.1515L0.424805 3.59254C0.424805 3.56069 0.429228 3.52973 0.437189 3.49965C0.439843 3.48948 0.446035 3.48019 0.449574 3.47002C0.456209 3.45144 0.462401 3.43242 0.472132 3.41517C0.478766 3.40367 0.488497 3.39438 0.496459 3.38377C0.506632 3.36961 0.51592 3.35502 0.527862 3.34263C0.538035 3.33246 0.551305 3.32494 0.562805 3.31609C0.575632 3.30548 0.587132 3.29398 0.601728 3.28557H0.60217L4.85275 0.838286C4.90657 0.807315 4.96758 0.791016 5.02967 0.791016C5.09177 0.791016 5.15277 0.807315 5.20659 0.838286L9.45717 3.28557H9.45805C9.47221 3.29442 9.48415 3.30548 9.49698 3.31565C9.50848 3.3245 9.52131 3.33246 9.53148 3.34219C9.54386 3.35502 9.55271 3.36961 9.56332 3.38377C9.57084 3.39438 9.58102 3.40367 9.58721 3.41517C9.59738 3.43286 9.60313 3.45144 9.61021 3.47002C9.61375 3.48019 9.61994 3.48948 9.62259 3.50009C9.63074 3.53024 9.6349 3.56131 9.63498 3.59254V12.6859L13.177 10.6465V5.9978C13.177 5.96684 13.1814 5.93544 13.1894 5.9058C13.1925 5.89519 13.1982 5.8859 13.2017 5.87573C13.2088 5.85715 13.215 5.83813 13.2247 5.82088C13.2314 5.80938 13.2411 5.80009 13.2486 5.78948C13.2592 5.77532 13.2681 5.76073 13.2805 5.74834C13.2907 5.73817 13.3035 5.73065 13.315 5.7218C13.3282 5.71119 13.3397 5.69969 13.3539 5.69129H13.3543L17.6054 3.244C17.6592 3.21298 17.7202 3.19666 17.7823 3.19666C17.8444 3.19666 17.9054 3.21298 17.9592 3.244L22.2098 5.69129C22.2248 5.70013 22.2363 5.71119 22.2496 5.72136C22.2606 5.73021 22.2735 5.73817 22.2836 5.7479C22.296 5.76073 22.3049 5.77532 22.3155 5.78948C22.3235 5.80009 22.3332 5.80938 22.3394 5.82088C22.3496 5.83813 22.3553 5.85715 22.3624 5.87573C22.3664 5.8859 22.3721 5.89519 22.3748 5.9058ZM21.6786 10.6465V6.61084L20.1911 7.46715L18.1361 8.65032V12.6859L21.679 10.6465H21.6786ZM17.428 17.9467V13.9085L15.4067 15.0629L9.63454 18.3572V22.4335L17.428 17.9467ZM1.13338 4.20513V17.9467L8.92596 22.4331V18.3577L4.85496 16.0537L4.85363 16.0528L4.85186 16.0519C4.83815 16.0439 4.82665 16.0324 4.81382 16.0227C4.80277 16.0139 4.78994 16.0068 4.78021 15.9971L4.77932 15.9957C4.76782 15.9847 4.75986 15.971 4.75013 15.9586C4.74129 15.9466 4.73067 15.9365 4.72359 15.9241L4.72315 15.9227C4.71519 15.9095 4.71032 15.8936 4.70457 15.8785C4.69882 15.8652 4.6913 15.8529 4.68777 15.8387V15.8383C4.68334 15.8215 4.68246 15.8038 4.68069 15.7865C4.67892 15.7732 4.67538 15.76 4.67538 15.7467V15.7458V6.24461L2.62086 5.061L1.13338 4.20557V4.20513ZM5.03011 1.55394L1.48855 3.59254L5.02923 5.63113L8.57034 3.59209L5.02923 1.55394H5.03011ZM6.87188 14.2765L8.9264 13.0937V4.20513L7.43892 5.06144L5.38396 6.24461V15.1332L6.87188 14.2765ZM17.7823 3.95965L14.2412 5.99825L17.7823 8.03684L21.323 5.9978L17.7823 3.95965ZM17.428 8.65032L15.373 7.46715L13.8856 6.61084V10.6465L15.9401 11.8292L17.428 12.6859V8.65032ZM9.2798 17.7446L14.4738 14.7794L17.0702 13.2976L13.5317 11.2604L9.45761 13.6059L5.74444 15.7436L9.2798 17.7446Z" fill="#9BA0AA"/>
</svg>
