<svg width="27" height="26" viewBox="0 0 27 26" fill="none" xmlns="http://www.w3.org/2000/svg">
<g clip-path="url(#clip0)">
<path d="M8.37587 0.06641C8.25644 0.0660653 8.1381 0.0892596 8.02763 0.134668C7.91717 0.180075 7.81673 0.246807 7.73206 0.331048C7.64739 0.415289 7.58016 0.515389 7.53419 0.625627C7.48823 0.735865 7.46444 0.85408 7.46418 0.973516V4.78153C7.46461 4.96526 7.50123 5.14711 7.57196 5.31668C7.64269 5.48625 7.74614 5.64023 7.87639 5.76981C8.00664 5.8994 8.16115 6.00205 8.33108 6.0719C8.50102 6.14175 8.68305 6.17744 8.86678 6.17692H11.6032C11.787 6.17641 11.9692 6.21211 12.1392 6.28199C12.3093 6.35186 12.4639 6.45455 12.5943 6.58419C12.7246 6.71382 12.8282 6.86787 12.899 7.03752C12.9699 7.20718 13.0066 7.38913 13.0071 7.57298V11.7113C13.0074 11.8953 13.0439 12.0774 13.1145 12.2472C13.1852 12.4171 13.2887 12.5713 13.419 12.7011C13.5493 12.831 13.7039 12.9339 13.8741 13.0039C14.0442 13.0739 14.2264 13.1098 14.4104 13.1093H18.571C18.9419 13.1085 19.298 13.2549 19.561 13.5164C19.824 13.7779 19.9724 14.1332 19.9736 14.5041V17.2254C19.9739 17.4093 20.0104 17.5913 20.0811 17.7611C20.1518 17.9309 20.2552 18.085 20.3856 18.2148C20.5159 18.3445 20.6706 18.4473 20.8407 18.5171C21.0107 18.587 21.193 18.6227 21.3769 18.6221H25.2013C25.3208 18.6225 25.4392 18.5992 25.5497 18.5538C25.6603 18.5084 25.7608 18.4416 25.8455 18.3573C25.9303 18.273 25.9975 18.1728 26.0435 18.0625C26.0895 17.9522 26.1133 17.8339 26.1136 17.7143V0.975483C26.1135 0.85596 26.0899 0.737626 26.044 0.627243C25.9982 0.51686 25.9311 0.416591 25.8465 0.332168C25.7618 0.247744 25.6614 0.18082 25.551 0.13522C25.4405 0.0896198 25.3221 0.0662378 25.2026 0.06641H8.37587ZM7.3698 17.7511V9.06734C7.36971 8.88356 7.33341 8.70159 7.26295 8.53184C7.1925 8.36209 7.08929 8.20789 6.95921 8.07806C6.82913 7.94822 6.67474 7.8453 6.50486 7.77516C6.33498 7.70503 6.15294 7.66907 5.96916 7.66932H1.02661C0.906975 7.66898 0.788449 7.69223 0.677816 7.73776C0.567183 7.78328 0.466615 7.85018 0.381869 7.93462C0.297124 8.01906 0.229866 8.11938 0.183945 8.22985C0.138025 8.34032 0.114344 8.45876 0.114258 8.5784L0.114258 25.0295C0.115125 25.2708 0.211673 25.5019 0.382715 25.6721C0.553757 25.8423 0.785325 25.9376 1.02661 25.9373H17.8526C17.9721 25.9376 18.0905 25.9144 18.201 25.869C18.3115 25.8235 18.412 25.7567 18.4967 25.6724C18.5814 25.5881 18.6486 25.4879 18.6945 25.3776C18.7404 25.2673 18.7642 25.149 18.7643 25.0295V20.5438C18.7639 20.36 18.7273 20.1781 18.6565 20.0084C18.5857 19.8388 18.4822 19.6847 18.3519 19.5551C18.2216 19.4254 18.067 19.3227 17.897 19.2528C17.727 19.1829 17.5449 19.1472 17.3611 19.1478H8.77503C8.40384 19.1486 8.0475 19.0021 7.78436 18.7403C7.52121 18.4785 7.37281 18.1229 7.37176 17.7517" fill="#9BA0AA"/>
</g>
<defs>
<clipPath id="clip0">
<rect width="26" height="25.8676" fill="white" transform="translate(0.114258 0.0664062)"/>
</clipPath>
</defs>
</svg>
