<svg width="11" height="24" viewBox="0 0 11 24" fill="none" xmlns="http://www.w3.org/2000/svg">
<path d="M10.3601 9.944C9.14839 4.59863 6.62291 3.17562 5.97868 2.1697C5.71303 1.72657 5.47769 1.26595 5.2743 0.791016C5.24027 1.26588 5.17774 1.56504 4.77411 1.92515C3.96368 2.64773 0.521708 5.45259 0.232041 11.5261C-0.0378395 17.1888 4.39501 20.6807 4.98067 21.0416C5.431 21.2632 5.97947 21.0463 6.24698 20.8429C8.38386 19.3764 11.3035 15.4667 10.3625 9.944" fill="#9BA0AA"/>
<path d="M5.45791 18.0262C5.34632 19.4278 5.26638 20.2422 4.98305 21.0431C4.98305 21.0431 5.16904 22.3775 5.29962 23.791H5.76182C5.87207 22.7956 6.04041 21.8076 6.26597 20.8318C5.66764 20.5374 5.48086 19.2561 5.45791 18.0262Z" fill="#9BA0AA"/>
<path d="M6.26518 20.8326C5.66052 20.5532 5.48561 19.245 5.4587 18.0262C5.60824 16.0157 5.65183 13.9986 5.58929 11.9835C5.55763 10.9262 5.60433 2.19028 5.32891 0.911314C5.51731 1.34449 5.73438 1.76462 5.97868 2.16891C6.62291 3.17562 9.14918 4.59863 10.3601 9.944C11.3035 15.4572 8.39969 19.3566 6.26518 20.8326Z" fill="#9BA0AA"/>
</svg>
