<svg width="27" height="14" viewBox="0 0 27 14" fill="none" xmlns="http://www.w3.org/2000/svg">
<g clip-path="url(#clip0)">
<path d="M13.6836 13.792C20.8633 13.792 26.6836 10.7623 26.6836 7.02492C26.6836 3.28755 20.8633 0.257812 13.6836 0.257812C6.50389 0.257812 0.683594 3.28755 0.683594 7.02492C0.683594 10.7623 6.50389 13.792 13.6836 13.792Z" fill="#9BA0AA"/>
<path fill-rule="evenodd" clip-rule="evenodd" d="M4.33447 11.0313L5.75919 3.81897H9.05358C10.4782 3.90804 11.1906 4.62029 11.1906 5.86697C11.1906 8.00393 9.49883 9.2505 7.98504 9.16143H6.38248L6.0263 11.0313H4.33447ZM6.73856 7.82589L7.18381 5.15461H8.34132C8.96461 5.15461 9.40975 5.42172 9.40975 5.95593C9.32079 7.46971 8.60843 7.73682 7.8071 7.82589H6.73866H6.73856ZM10.8596 9.16143L12.2842 1.94922H13.976L13.6198 3.81897H15.2225C16.6472 3.90804 17.1814 4.62029 17.0034 5.51079L16.3801 9.16143H14.5993L15.2226 5.86697C15.3116 5.42172 15.3116 5.15461 14.6884 5.15461H13.3527L12.5514 9.16143H10.8596ZM16.266 11.0313L17.6907 3.81897H20.9851C22.4099 3.90804 23.1222 4.62029 23.1222 5.86697C23.1222 8.00393 21.4304 9.2505 19.9167 9.16143H18.3139L17.9578 11.0313H16.266ZM18.67 7.82589L19.1153 5.15461H20.2729C20.8962 5.15461 21.3413 5.42172 21.3413 5.95593C21.2523 7.46971 20.54 7.73682 19.7387 7.82589H18.6701H18.67Z" fill="white"/>
</g>
<defs>
<clipPath id="clip0">
<rect width="26" height="13.6136" fill="white" transform="translate(0.683594 0.257812)"/>
</clipPath>
</defs>
</svg>
