<svg width="27" height="26" viewBox="0 0 27 26" fill="none" xmlns="http://www.w3.org/2000/svg">
<g clip-path="url(#clip0)">
<path d="M13.8496 0.059082C7.26567 0.059082 7.67676 2.91424 7.67676 2.91424L7.68407 5.87228H13.9669V6.76036H5.18861C5.18861 6.76036 0.975586 6.28255 0.975586 12.9256C0.975586 19.5689 4.65282 19.3333 4.65282 19.3333H6.84738V16.2506C6.84738 16.2506 6.72907 12.5733 10.4659 12.5733H16.6974C16.6974 12.5733 20.1984 12.6299 20.1984 9.18971V3.50152C20.1984 3.50152 20.7302 0.059082 13.8496 0.059082ZM10.3852 2.0483C10.5336 2.04817 10.6807 2.07731 10.8179 2.13407C10.9551 2.19082 11.0797 2.27407 11.1847 2.37906C11.2897 2.48404 11.3729 2.60869 11.4297 2.74589C11.4864 2.88308 11.5156 3.03012 11.5155 3.17859C11.5156 3.32705 11.4864 3.47409 11.4297 3.61128C11.3729 3.74848 11.2897 3.87313 11.1847 3.97811C11.0797 4.0831 10.9551 4.16635 10.8179 4.2231C10.6807 4.27986 10.5336 4.309 10.3852 4.30887C10.2367 4.309 10.0897 4.27986 9.95248 4.2231C9.81528 4.16635 9.69063 4.0831 9.58565 3.97811C9.48066 3.87313 9.39741 3.74848 9.34066 3.61128C9.2839 3.47409 9.25476 3.32705 9.25489 3.17859C9.25476 3.03012 9.2839 2.88308 9.34066 2.74589C9.39741 2.60869 9.48066 2.48404 9.58565 2.37906C9.69063 2.27407 9.81528 2.19082 9.95248 2.13407C10.0897 2.07731 10.2367 2.04817 10.3852 2.0483Z" fill="#9BA0AA"/>
<path d="M14.0362 25.8591C20.62 25.8591 20.209 23.004 20.209 23.004L20.2017 20.0461H13.9187V19.158H22.697C22.697 19.158 26.91 19.6358 26.91 12.9926C26.91 6.34942 23.2328 6.58502 23.2328 6.58502H21.0382V9.66764C21.0382 9.66764 21.1565 13.3448 17.4197 13.3448H11.1883C11.1883 13.3448 7.68726 13.2883 7.68726 16.7286V22.4168C7.68726 22.4168 7.15563 25.8591 14.0361 25.8591H14.0362ZM17.5006 23.8701C17.3521 23.8703 17.2051 23.8411 17.0679 23.7844C16.9307 23.7276 16.806 23.6444 16.701 23.5394C16.5961 23.4344 16.5128 23.3097 16.4561 23.1726C16.3993 23.0354 16.3702 22.8883 16.3703 22.7399C16.3701 22.5914 16.3993 22.4443 16.456 22.3071C16.5128 22.1699 16.596 22.0453 16.701 21.9403C16.806 21.8353 16.9306 21.752 17.0678 21.6953C17.205 21.6385 17.3521 21.6093 17.5006 21.6095C17.649 21.6093 17.7961 21.6385 17.9333 21.6952C18.0705 21.752 18.1951 21.8352 18.3001 21.9402C18.4051 22.0452 18.4883 22.1699 18.5451 22.3071C18.6018 22.4442 18.631 22.5913 18.6308 22.7398C18.631 22.8882 18.6018 23.0353 18.5451 23.1724C18.4883 23.3096 18.4051 23.4343 18.3001 23.5393C18.1951 23.6443 18.0705 23.7275 17.9333 23.7843C17.7961 23.841 17.649 23.8702 17.5006 23.87V23.8701Z" fill="#C5C9D2"/>
</g>
<defs>
<clipPath id="clip0">
<rect width="26" height="25.896" fill="white" transform="translate(0.960938 0.0517578)"/>
</clipPath>
</defs>
</svg>
