<svg width="27" height="24" viewBox="0 0 27 24" fill="none" xmlns="http://www.w3.org/2000/svg">
<path d="M26.1445 12.1676C26.1445 10.4452 23.9876 8.81292 20.6806 7.80069C21.4438 4.43013 21.1046 1.74851 19.6101 0.88997C19.2656 0.688584 18.8628 0.59319 18.423 0.59319V1.77501C18.6667 1.77501 18.8628 1.82271 19.0271 1.9128C19.7479 2.32617 20.0606 3.90016 19.8168 5.92462C19.7585 6.42279 19.6631 6.94745 19.5465 7.48271C18.5078 7.22833 17.3736 7.03225 16.1812 6.90505C15.4658 5.92462 14.7238 5.03428 13.9766 4.25524C15.7043 2.64945 17.3259 1.76971 18.4283 1.76971V0.587891C16.9709 0.587891 15.063 1.62662 13.1339 3.42849C11.2049 1.63722 9.297 0.609089 7.8396 0.609089V1.79091C8.93662 1.79091 10.5636 2.66535 12.2913 4.26054C11.5493 5.03958 10.8074 5.92462 10.1025 6.90505C8.90483 7.03225 7.7707 7.22833 6.73198 7.48801C6.61008 6.95805 6.51999 6.44399 6.45639 5.95112C6.20731 3.92666 6.51469 2.35267 7.23014 1.934C7.38913 1.8386 7.59582 1.79621 7.8396 1.79621V0.614389C7.39443 0.614389 6.99166 0.709782 6.64188 0.911168C5.15268 1.76971 4.81881 4.44602 5.58725 7.80599C2.29088 8.82352 0.144531 10.4505 0.144531 12.1676C0.144531 13.89 2.30148 15.5223 5.60845 16.5345C4.84531 19.9051 5.18448 22.5867 6.67898 23.4452C7.02346 23.6466 7.42623 23.742 7.8714 23.742C9.3288 23.742 11.2367 22.7033 13.1657 20.9014C15.0948 22.6927 17.0027 23.7208 18.4601 23.7208C18.9052 23.7208 19.308 23.6254 19.6578 23.424C21.147 22.5655 21.4809 19.8892 20.7124 16.5292C23.9982 15.517 26.1445 13.8847 26.1445 12.1676ZM19.2444 8.63274C19.0483 9.31639 18.8045 10.0212 18.529 10.7261C18.3117 10.3021 18.0838 9.87815 17.8347 9.45418C17.5909 9.03021 17.3312 8.61684 17.0716 8.21406C17.8241 8.32536 18.5502 8.46315 19.2444 8.63274ZM16.8172 14.2768C16.4038 14.9923 15.9798 15.6706 15.54 16.3013C14.7503 16.3702 13.9501 16.4073 13.1445 16.4073C12.3443 16.4073 11.544 16.3702 10.7597 16.3066C10.3198 15.6759 9.89056 15.0029 9.47719 14.2927C9.07441 13.5985 8.70874 12.8936 8.37486 12.1835C8.70344 11.4733 9.07441 10.7632 9.47189 10.0689C9.88526 9.35348 10.3092 8.67513 10.7491 8.04448C11.5387 7.97558 12.339 7.93848 13.1445 7.93848C13.9448 7.93848 14.745 7.97558 15.5294 8.03918C15.9692 8.66983 16.3985 9.34289 16.8119 10.053C17.2147 10.7473 17.5803 11.4521 17.9142 12.1623C17.5803 12.8724 17.2146 13.5826 16.8172 14.2768ZM18.529 13.5879C18.8151 14.298 19.0589 15.0082 19.2603 15.6971C18.5661 15.8667 17.8347 16.0098 17.0769 16.1211C17.3365 15.713 17.5962 15.2944 17.84 14.8651C18.0838 14.4411 18.3117 14.0119 18.529 13.5879ZM13.1551 19.2426C12.6623 18.7338 12.1694 18.1668 11.6818 17.5467C12.1588 17.5679 12.6464 17.5838 13.1392 17.5838C13.6374 17.5838 14.1303 17.5732 14.6125 17.5467C14.1356 18.1668 13.6427 18.7338 13.1551 19.2426ZM9.2122 16.1211C8.45966 16.0098 7.73361 15.872 7.03935 15.7024C7.23544 15.0188 7.47922 14.3139 7.7548 13.6091C7.97209 14.0331 8.19997 14.457 8.44906 14.881C8.69814 15.305 8.95252 15.7183 9.2122 16.1211ZM13.1286 5.09258C13.6215 5.60134 14.1144 6.16841 14.6019 6.78846C14.125 6.76726 13.6374 6.75136 13.1445 6.75136C12.6464 6.75136 12.1535 6.76196 11.6712 6.78846C12.1482 6.16841 12.6411 5.60134 13.1286 5.09258ZM9.20691 8.21406C8.94722 8.62214 8.68754 9.04081 8.44376 9.47008C8.19997 9.89405 7.97209 10.318 7.7548 10.742C7.46862 10.0318 7.22484 9.32169 7.02346 8.63274C7.71771 8.46845 8.44906 8.32536 9.20691 8.21406ZM4.41074 14.8492C2.53467 14.049 1.32105 12.9996 1.32105 12.1676C1.32105 11.3355 2.53467 10.2809 4.41074 9.48598C4.86651 9.28989 5.36467 9.115 5.87873 8.95071C6.18081 9.98944 6.57829 11.0706 7.07115 12.1782C6.58359 13.2805 6.19141 14.3563 5.89463 15.3898C5.36997 15.2255 4.87181 15.0453 4.41074 14.8492ZM7.26194 22.4224C6.54119 22.009 6.22851 20.435 6.47229 18.4106C6.53059 17.9124 6.62598 17.3877 6.74258 16.8525C7.7813 17.1068 8.91543 17.3029 10.1078 17.4301C10.8233 18.4106 11.5652 19.3009 12.3125 20.0799C10.5848 21.6857 8.96312 22.5655 7.8608 22.5655C7.62231 22.5602 7.42093 22.5125 7.26194 22.4224ZM19.8327 18.3841C20.0818 20.4085 19.7744 21.9825 19.0589 22.4012C18.8999 22.4966 18.6932 22.539 18.4495 22.539C17.3524 22.539 15.7255 21.6645 13.9978 20.0693C14.7397 19.2903 15.4817 18.4053 16.1865 17.4248C17.3842 17.2976 18.5184 17.1015 19.5571 16.8419C19.679 17.3771 19.7744 17.8912 19.8327 18.3841ZM21.873 14.8492C21.4173 15.0453 20.9191 15.2202 20.405 15.3845C20.1029 14.3457 19.7055 13.2646 19.2126 12.157C19.7002 11.0547 20.0924 9.97884 20.3891 8.94541C20.9138 9.1097 21.412 9.28989 21.8783 9.48598C23.7544 10.2862 24.968 11.3355 24.968 12.1676C24.9627 12.9996 23.7491 14.0543 21.873 14.8492Z" fill="#9BA0AA"/>
<path d="M13.1392 14.5895C14.4768 14.5895 15.5612 13.5052 15.5612 12.1676C15.5612 10.83 14.4768 9.74565 13.1392 9.74565C11.8016 9.74565 10.7173 10.83 10.7173 12.1676C10.7173 13.5052 11.8016 14.5895 13.1392 14.5895Z" fill="#9BA0AA"/>
</svg>
