<svg width="24" height="24" viewBox="0 0 24 24" fill="none" xmlns="http://www.w3.org/2000/svg">
<path fill-rule="evenodd" clip-rule="evenodd" d="M11.5655 0.791016C17.9167 0.791016 23.0654 5.93976 23.0654 12.291C23.0654 18.6423 17.9166 23.791 11.5655 23.791C5.21423 23.7911 0.0654297 18.6423 0.0654297 12.291C0.0654297 5.93982 5.21423 0.791016 11.5655 0.791016Z" fill="#9BA0AA"/>
<path d="M18.7789 5.71285C18.2581 3.67042 14.8715 2.99901 11.6663 4.13767C9.75881 4.81535 7.69376 5.87894 6.20904 7.26777C4.44364 8.91897 4.16212 10.3562 4.27811 10.9568C4.68743 13.0758 7.59093 14.4609 8.78445 15.4885V15.4947C8.43251 15.6679 5.8566 16.9716 5.25376 18.3043C4.61768 19.7103 5.35497 20.7193 5.84316 20.855C7.35559 21.2759 8.90771 20.5189 9.7418 19.2748C10.5467 18.0742 10.4797 16.5237 10.1299 15.7526C10.6124 15.6253 11.175 15.5682 11.8899 15.6517C13.9072 15.8873 14.3029 17.1469 14.2273 17.674C14.1516 18.2012 13.7285 18.4911 13.587 18.5785C13.4456 18.6661 13.4024 18.6964 13.4143 18.7615C13.4315 18.856 13.497 18.8525 13.6175 18.8321C13.7836 18.8041 14.6769 18.4033 14.715 17.4302C14.7636 16.1948 13.5797 14.8128 11.4834 14.8489C10.62 14.8638 10.0772 14.9459 9.68498 15.0919C9.65598 15.0588 9.62648 15.026 9.59597 14.9934C8.30001 13.6107 5.90412 12.6326 6.00578 10.7738C6.04273 10.098 6.27761 8.31849 10.6094 6.15995C14.1579 4.39176 16.9986 4.87838 17.4895 5.9567C18.1907 7.49734 15.9713 10.3607 12.2862 10.7738C10.8822 10.9312 10.1429 10.387 9.95899 10.1844C9.76542 9.97098 9.73659 9.96135 9.66426 10.0014C9.54654 10.0666 9.62116 10.255 9.66426 10.3673C9.77432 10.6536 10.2258 11.1614 10.9955 11.414C11.6727 11.6362 13.3211 11.7583 15.3147 10.9872C17.5475 10.1236 19.291 7.72103 18.7789 5.71285ZM9.27992 16.1214C9.44718 16.7403 9.42887 17.3174 9.25601 17.8401C9.23681 17.8982 9.21571 17.9556 9.19276 18.0123C9.16975 18.069 9.14495 18.1251 9.11825 18.1804C8.98496 18.4568 8.80617 18.7157 8.58712 18.9547C7.91891 19.6836 6.98541 19.9592 6.5851 19.727C6.15284 19.4764 6.36931 18.4487 7.14405 17.6298C7.9774 16.7488 9.17652 16.1823 9.17652 16.1823L9.17473 16.1787C9.20921 16.1601 9.24431 16.1409 9.27992 16.1214Z" fill="white"/>
</svg>
