<svg width="23" height="26" viewBox="0 0 23 26" fill="none" xmlns="http://www.w3.org/2000/svg">
<g clip-path="url(#clip0)">
<path d="M20.0897 5.10608C20.0718 4.97608 19.9579 4.90413 19.8638 4.89621C19.7698 4.88837 17.7817 4.74101 17.7817 4.74101C17.7817 4.74101 16.401 3.37022 16.2494 3.2185C16.0978 3.06686 15.8016 3.11298 15.6867 3.14682C15.6698 3.1518 15.385 3.23969 14.914 3.38545C14.4527 2.0582 13.6387 0.838516 12.2067 0.838516C12.1671 0.838516 12.1265 0.840119 12.0858 0.842434C11.6785 0.303824 11.174 0.0698242 10.7382 0.0698242C7.40229 0.0698242 5.80854 4.24006 5.30884 6.35924C4.01258 6.76091 3.09172 7.04646 2.9741 7.08341C2.25055 7.31038 2.22767 7.33317 2.13266 8.01496C2.06116 8.53113 0.167969 23.1721 0.167969 23.1721L14.9201 25.9361L22.9133 24.2069C22.9133 24.2069 20.1074 5.23608 20.0898 5.10608H20.0897ZM14.0986 3.63761L12.8504 4.02396C12.8508 3.93599 12.8512 3.84944 12.8512 3.75479C12.8512 2.92991 12.7367 2.26576 12.553 1.73926C13.2909 1.83186 13.7824 2.67143 14.0986 3.63761ZM11.6377 1.90282C11.8429 2.41686 11.9762 3.15456 11.9762 4.15004C11.9762 4.20097 11.9758 4.24754 11.9754 4.29465C11.1636 4.5461 10.2814 4.8191 9.39734 5.09299C9.89375 3.17718 10.8242 2.25187 11.6377 1.90282ZM10.6466 0.964598C10.7906 0.964598 10.9356 1.01348 11.0744 1.10902C10.0053 1.6121 8.85936 2.87916 8.37542 5.40944L6.33763 6.04056C6.90446 4.1106 8.25041 0.964598 10.6465 0.964598H10.6466Z" fill="#C5C9D2"/>
<path d="M19.8638 4.89569C19.7698 4.88785 17.7818 4.74049 17.7818 4.74049C17.7818 4.74049 16.401 3.3697 16.2495 3.21797C16.1927 3.16152 16.1163 3.13258 16.0363 3.12012L14.9209 25.9354L22.9133 24.2064C22.9133 24.2064 20.1073 5.23556 20.0897 5.10556C20.0718 4.97556 19.9579 4.90361 19.8638 4.89569Z" fill="#9BA0AA"/>
<path d="M12.207 9.31204L11.2214 12.2438C11.2214 12.2438 10.3579 11.7829 9.29935 11.7829C7.74756 11.7829 7.66947 12.7567 7.66947 13.0021C7.66947 14.3411 11.1598 14.8542 11.1598 17.9905C11.1598 20.4581 9.59479 22.047 7.48453 22.047C4.95223 22.047 3.65723 20.471 3.65723 20.471L4.33527 18.2307C4.33527 18.2307 5.66642 19.3736 6.78966 19.3736C7.52362 19.3736 7.82217 18.7957 7.82217 18.3735C7.82217 16.6269 4.95864 16.5489 4.95864 13.6789C4.95864 11.2633 6.69243 8.92578 10.1922 8.92578C11.5408 8.92578 12.207 9.31204 12.207 9.31204Z" fill="#F3F5FA"/>
</g>
<defs>
<clipPath id="clip0">
<rect width="22.7968" height="26" fill="white" transform="translate(0.163574)"/>
</clipPath>
</defs>
</svg>
