<svg width="27" height="27" viewBox="0 0 27 27" fill="none" xmlns="http://www.w3.org/2000/svg">
<path d="M26.1427 7.55109C26.1412 7.2896 26.1383 7.02825 26.1311 6.76646C26.1158 6.197 26.0822 5.62237 25.9809 5.059C25.8782 4.48687 25.7103 3.95488 25.4458 3.43515C25.186 2.92475 24.8465 2.45768 24.4415 2.05265C24.0365 1.64762 23.5694 1.30812 23.0588 1.04826C22.5395 0.783972 22.0075 0.616128 21.4358 0.513426C20.8722 0.411905 20.2975 0.378459 19.7276 0.363049C19.466 0.355957 19.2046 0.35298 18.943 0.35136C18.6325 0.349609 18.3218 0.349609 18.0115 0.349609H11.1289H8.27762C7.96693 0.349609 7.65659 0.349609 7.3462 0.351404C7.08454 0.353024 6.82284 0.356001 6.56157 0.363093C6.41912 0.366945 6.27636 0.371936 6.13352 0.378809C5.70502 0.399472 5.27587 0.43734 4.85332 0.513469C4.42461 0.590518 4.01809 0.704165 3.6226 0.867675C3.49079 0.922134 3.36015 0.982198 3.23031 1.04826C2.84734 1.24316 2.4888 1.48284 2.1627 1.76135C2.054 1.85421 1.94889 1.95135 1.84768 2.05261C1.44256 2.45764 1.10302 2.9247 0.843284 3.43511C0.578692 3.95484 0.411023 4.48682 0.308233 5.05895C0.207106 5.62233 0.173485 6.19696 0.158163 6.76642C0.150983 7.02821 0.147963 7.28956 0.146255 7.55105C0.144285 7.8616 0.144548 8.17221 0.144548 8.48268V12.7212V18.2164C0.144548 18.5272 0.144241 18.8375 0.146255 19.1482C0.147963 19.4097 0.150983 19.6711 0.158163 19.9324C0.173485 20.5022 0.207063 21.077 0.308233 21.6401C0.411023 22.212 0.578692 22.7445 0.843284 23.2641C1.10302 23.7746 1.44256 24.2416 1.84768 24.6464C2.25249 25.0516 2.71969 25.3911 3.23035 25.6511C3.74969 25.9154 4.28172 26.0831 4.85346 26.1858C5.41679 26.2872 5.99185 26.3209 6.56162 26.3361C6.82288 26.3431 7.08459 26.3462 7.34625 26.3477C7.65663 26.3499 7.96697 26.3496 8.27766 26.3496H18.0115C18.3218 26.3496 18.6325 26.3499 18.943 26.3477C19.2045 26.3462 19.4659 26.3431 19.7276 26.3361C20.2975 26.3209 20.8721 26.2871 21.4358 26.1858C22.0074 26.0831 22.5395 25.9154 23.0588 25.6511C23.5694 25.3911 24.0365 25.0516 24.4414 24.6464C24.8464 24.2415 25.186 23.7746 25.4457 23.2641C25.7103 22.7445 25.8782 22.2121 25.9809 21.6401C26.0821 21.077 26.1158 20.5022 26.131 19.9324C26.1382 19.6711 26.1411 19.4098 26.1427 19.1482C26.1447 18.8375 26.1445 18.5272 26.1445 18.2164V8.48268C26.1445 8.17221 26.1447 7.8616 26.1427 7.55109Z" fill="#9BA0AA"/>
<path d="M20.7466 16.3993C20.746 16.3985 20.7455 16.398 20.7448 16.3972C20.7736 16.2993 20.8032 16.2021 20.8284 16.1017C21.9075 11.8024 19.2738 6.71932 14.817 4.04297C16.7701 6.6906 17.6337 9.89749 16.8664 12.702C16.798 12.9521 16.7157 13.1922 16.6248 13.4255C16.5261 13.3607 16.4018 13.2871 16.2348 13.1951C16.2348 13.1951 11.8015 10.4578 6.9965 5.61617C6.87042 5.48908 9.55872 9.45854 12.6096 12.6818C11.1722 11.8752 7.1664 8.96056 4.63044 6.63951C4.94201 7.15911 5.31259 7.65945 5.71994 8.14113C7.83769 10.8269 10.5995 14.1406 13.9083 16.6852C11.5835 18.1079 8.29854 18.2185 5.02786 16.6867C4.21889 16.3076 3.45838 15.8501 2.75439 15.3304C4.13886 17.5449 6.27115 19.4555 8.86633 20.5709C11.9612 21.901 15.0388 21.8108 17.331 20.5927L17.3292 20.5954C17.3397 20.5888 17.353 20.5815 17.3639 20.5748C17.458 20.5242 17.5514 20.4727 17.6428 20.4183C18.7441 19.8466 20.9194 19.2667 22.087 21.5385C22.3729 22.0944 22.9806 19.148 20.7466 16.3993Z" fill="white"/>
</svg>
