<svg width="24" height="14" viewBox="0 0 24 14" fill="none" xmlns="http://www.w3.org/2000/svg">
<path d="M11.7398 0.00453152C7.69355 0.133136 6.49093 3.02359 6.21533 4.5895C6.57444 4.00906 7.70607 2.73549 9.37219 2.73549C11.3139 2.73549 12.7921 4.90271 13.6941 5.57918C14.7899 6.40104 16.9918 7.4862 19.8825 6.60641C22.1876 5.90488 23.2566 3.45786 23.4904 2.29702C22.3755 3.81281 20.6843 4.72326 18.5922 3.64996C17.1516 2.91085 16.0743 -0.133243 11.7398 0.00453152Z" fill="#9BA0AA"/>
<path d="M6.01474 6.88148C1.96845 7.01009 0.765834 9.90055 0.490234 11.4665C0.849348 10.886 1.98098 9.61245 3.6471 9.61245C5.58882 9.61245 7.06703 11.7797 7.96899 12.4561C9.0648 13.278 11.2667 14.3632 14.1574 13.4834C16.4625 12.7818 17.5315 10.3348 17.7653 9.17397C16.6504 10.6898 14.9592 11.6002 12.8671 10.5269C11.4265 9.7878 10.3492 6.74371 6.01474 6.88148Z" fill="#9BA0AA"/>
</svg>
