<svg width="27" height="26" viewBox="0 0 27 26" fill="none" xmlns="http://www.w3.org/2000/svg">
<g clip-path="url(#clip0)">
<path d="M13.9608 26C6.75649 26 0.906489 20.2582 0.960825 13C1.01516 5.74184 6.48582 0 13.9608 0C21.4363 0 26.9608 5.85 26.9608 13C26.9608 20.15 21.1652 26 13.9608 26ZM17.8065 23.9957L14.1233 14.0832L10.6565 24.2125C13.2027 24.8087 14.9358 24.9707 17.8065 23.9957ZM8.81516 23.4543L3.29016 8.34184C2.53149 9.96684 2.3695 11.3212 2.26082 13C2.31516 17.4413 4.80649 21.5038 8.81516 23.4543ZM25.607 13C25.6608 10.1293 24.3613 7.85433 24.2527 7.52934C24.3613 9.75051 24.0358 10.8875 23.657 12.1337L19.8652 23.0212C24.632 20.15 25.5522 15.8707 25.6608 13H25.607ZM13.582 12.5125L11.7402 7.475L10.3858 7.36684C9.8445 6.9875 10.169 6.39184 10.5483 6.39184C12.9858 6.55434 14.3397 6.55434 16.7777 6.39184C17.3738 6.39184 17.5358 7.25867 16.8315 7.36684L15.5315 7.475L19.756 19.9332L21.7598 13.1082C21.8685 10.1293 21.0555 9.80434 19.9723 7.6375C19.1055 5.95816 20.0266 4.33316 21.706 4.27934C20.3511 2.97934 17.5891 1.35434 13.9598 1.3C10.3305 1.24566 6.48481 3.0875 4.20981 6.55434L8.21848 6.44617C8.70598 6.66301 8.48914 7.36684 8.21848 7.42117L6.81032 7.52934L11.0353 20.2043L13.582 12.5125Z" fill="#9BA0AA"/>
</g>
<defs>
<clipPath id="clip0">
<rect width="26" height="26" fill="white" transform="translate(0.960449)"/>
</clipPath>
</defs>
</svg>
