<svg width="26" height="26" viewBox="0 0 26 26" fill="none" xmlns="http://www.w3.org/2000/svg">
<g clip-path="url(#clip0)">
<path d="M21.7735 0.000488281C23.5384 0.89986 25.0543 3.25998 24.9783 6.46253C24.7476 10.4086 21.8867 13.8093 18.7739 16.9426C18.5996 13.1215 17.7687 10.6863 16.4714 7.26189C15.2466 3.81101 18.8275 0.110941 21.7735 0.000488281Z" fill="#9BA0AA"/>
<path d="M12.2263 16.8081C13.1741 15.6292 13.8458 14.5794 14.3146 13.6309C17.5257 15.3097 16.768 14.9962 18.3167 16.785C18.3219 16.8407 18.3269 16.8962 18.3315 16.9515C18.46 19.4317 16.6507 25.1655 9.52633 25.9513C9.03318 22.0985 10.6365 18.8121 12.2263 16.8081Z" fill="#9BA0AA"/>
<path d="M0.761117 2.39607C5.83728 0.387354 11.3004 2.44503 14.4544 6.73224C14.7596 7.14691 15.0489 7.57771 15.3218 8.02103C15.8146 11.1671 15.4388 12.9143 14.4795 13.8405C13.8488 13.5223 13.1758 13.2401 12.4574 12.9791C10.7873 12.3724 9.24585 11.9708 7.04448 11.319C1.81715 9.89244 0.528066 5.41024 0.761117 2.39607Z" fill="#9BA0AA"/>
<path d="M15.1275 7.7124C15.1608 7.76412 15.1938 7.81545 15.2262 7.86755L15.2663 7.93179C15.3477 8.06264 15.4276 8.19425 15.5063 8.32748L15.5196 8.34968L15.5408 8.38574L15.56 8.41905L15.6164 8.51584L15.6203 8.52286L15.6967 8.65684L15.699 8.66073C15.7543 8.75828 15.8087 8.85621 15.8623 8.95489L15.869 8.96742L15.9286 9.07787L15.9302 9.08071L15.9956 9.2036L16.0144 9.23966L16.0508 9.30987L16.0954 9.39632L16.1386 9.4802C16.1824 9.56712 16.2259 9.65413 16.2686 9.74105L16.2796 9.76259C16.3565 9.92018 16.4316 10.0787 16.5048 10.2381L16.5605 10.3599L16.5659 10.3721L16.6015 10.4512L16.6431 10.5449L16.6665 10.599L16.7042 10.6855L16.7312 10.7477L16.788 10.8817L16.7919 10.8911L16.8526 11.0368L16.86 11.0544C16.9247 11.2119 16.9874 11.3695 17.0481 11.5279L17.054 11.5425L17.1041 11.6754L17.1072 11.6827L17.1362 11.7611C17.1684 11.848 17.2001 11.9351 17.2314 12.0223L17.2436 12.0565C17.278 12.1539 17.3121 12.2519 17.345 12.3494L17.3555 12.3803C17.3865 12.472 17.4163 12.5636 17.4461 12.6553L17.4606 12.7004L17.4641 12.7109L17.5111 12.8594L17.513 12.8661L17.5565 13.0078L17.6 13.154L17.6012 13.1571L17.6373 13.2804L17.6486 13.3205L17.6705 13.3969C17.6951 13.4849 17.7194 13.5727 17.743 13.6609L17.7606 13.7266L17.7947 13.8566L17.7962 13.863C17.8378 14.0228 17.8769 14.1826 17.9141 14.342L17.9177 14.3585L17.9216 14.3753C17.9701 14.5857 18.0148 14.7953 18.0559 15.004L18.0599 15.0248C18.1228 15.3458 18.1771 15.6684 18.2228 15.9923L18.2236 15.9966C18.2377 16.0953 18.2506 16.1936 18.2628 16.292L18.2678 16.3342L18.2843 16.4748V16.4752L18.2984 16.6053L18.3031 16.6484L18.3133 16.7514L18.3172 16.7929L18.3188 16.8098L18.3313 16.9512C17.2099 15.5069 15.8702 14.5115 14.2627 13.7329C15.56 11.168 15.3778 9.34043 15.1275 7.7124Z" fill="#C5C9D2"/>
</g>
<defs>
<clipPath id="clip0">
<rect width="24.2944" height="26" fill="white" transform="translate(0.722656)"/>
</clipPath>
</defs>
</svg>
