<svg width="27" height="27" viewBox="0 0 27 27" fill="none" xmlns="http://www.w3.org/2000/svg">
<g clip-path="url(#clip0)">
<path d="M4.2967 17.502L2.93664 17.9989L2.86426 22.0445L7.5721 20.3247C5.95601 19.7835 4.77743 18.8296 4.2967 17.502Z" fill="#9BA0AA"/>
<path d="M5.00877 13.2236L0.289062 14.9477L2.93681 18.0005L4.29687 17.5036C3.81723 16.1803 4.11323 14.6863 5.00877 13.2236Z" fill="#9BA0AA"/>
<path d="M12.9497 7.38445C6.94006 9.57956 3.0651 14.1102 4.29662 17.5023L26.0589 9.55256C24.8273 6.1605 18.9593 5.18933 12.9497 7.38445Z" fill="#C5C9D2"/>
<path d="M17.405 19.6715C23.4146 17.4764 27.296 12.9663 26.058 9.55371L4.2959 17.5024C5.53389 20.916 11.3954 21.8667 17.405 19.6715Z" fill="#C5C9D2"/>
<path d="M26.0579 9.55273L4.29688 17.5025C4.7225 18.6778 6.34831 19.2568 8.62769 19.2568C10.8509 19.2568 13.6963 18.707 16.6628 17.6234C22.6723 15.4283 26.8994 11.8732 26.0579 9.55273Z" fill="#C5C9D2"/>
<path d="M21.7274 7.7998C19.5053 7.7998 16.6587 8.34966 13.6923 9.43317C7.68275 11.6283 3.45565 15.1823 4.29718 17.5028L26.0593 9.55308C25.6326 8.37775 24.0078 7.7998 21.7274 7.7998Z" fill="#C5C9D2"/>
<path d="M20.5249 22.2601C19.8843 22.2601 18.9402 21.6821 17.7173 20.5414C16.2708 19.1921 14.6148 17.2152 13.0516 14.9758C11.4896 12.7364 10.2062 10.4981 9.43709 8.67133C8.59989 6.68146 8.47998 5.45859 9.08168 5.03513C9.22104 4.94006 9.38632 4.89145 9.55484 4.89577C10.0442 4.89577 10.9991 5.25982 12.7632 6.9969L12.8021 7.03471L12.7967 7.08873C12.7848 7.21404 12.774 7.33935 12.7643 7.46358L12.7449 7.7088L12.572 7.53488C10.6707 5.61956 9.83463 5.41322 9.5624 5.41322C9.48462 5.41322 9.42305 5.42835 9.37876 5.45968C9.11733 5.64332 9.10005 6.54211 9.9124 8.47039C10.6675 10.2636 11.9325 12.4685 13.474 14.6787C15.0166 16.89 16.6478 18.8367 18.0695 20.1622C19.6013 21.5914 20.2916 21.7459 20.5173 21.7459C20.5951 21.7459 20.6578 21.7297 20.7053 21.6962C20.9808 21.5028 20.9808 20.5403 20.0755 18.464L20.0334 18.3689L20.1241 18.3192C20.2149 18.2695 20.3034 18.2209 20.3855 18.1734L20.4947 18.1118L20.5454 18.2263C21.1871 19.6977 21.7877 21.5676 21.0002 22.1207C20.8609 22.2158 20.6945 22.2644 20.5249 22.2601ZM20.5249 22.0332V22.1466V22.0332Z" fill="#9BA0AA"/>
<path d="M17.5513 19.6092L17.5426 19.7215C17.3903 21.6012 16.9906 23.8612 15.9471 23.953C15.9255 23.9551 15.9039 23.9551 15.8833 23.9551C15.1747 23.9551 14.5038 22.9397 13.8913 20.9379C13.3102 19.0431 12.8597 16.5002 12.6231 13.7768C12.3855 11.0534 12.3887 8.47051 12.6328 6.50333C12.8986 4.36007 13.4041 3.24091 14.1366 3.17609C14.1582 3.17393 14.1808 3.17285 14.2025 3.17285C14.7167 3.17285 15.4912 3.75512 16.2841 6.4666L15.7667 6.56599C15.502 5.66072 15.2136 4.92397 14.9273 4.41625C14.6626 3.94849 14.4045 3.6903 14.2025 3.6903C14.196 3.6903 14.1895 3.6903 14.1819 3.69138C13.8643 3.71947 13.402 4.48862 13.1449 6.56707C12.9051 8.4986 12.9018 11.0437 13.1362 13.7314C13.3707 16.4202 13.8136 18.9254 14.3839 20.7856C14.6389 21.6185 14.9187 22.3056 15.1941 22.7712C15.4469 23.2011 15.6921 23.4377 15.8833 23.4377C15.8898 23.4377 15.8963 23.4377 15.9028 23.4366C16.2063 23.4107 16.7789 22.6091 17.0198 19.7907L17.5513 19.6092Z" fill="#9BA0AA"/>
</g>
<defs>
<clipPath id="clip0">
<rect width="26" height="26" fill="white" transform="translate(0.144531 0.564453)"/>
</clipPath>
</defs>
</svg>
